{"glyphs":{"0":{"ha":744,"x_min":0,"x_max":0,"o":"m 338 910 b 0 317 114 910 0 644 b 338 -278 0 -12 114 -278 b 675 317 561 -278 675 -12 b 338 910 675 644 561 910 z m 338 -264 b 85 317 161 -264 85 -4 b 338 896 85 636 161 896 b 590 317 515 896 590 636 b 338 -264 590 -4 515 -264 z "},"1":{"ha":283,"x_min":0,"x_max":0,"o":"m 214 -264 l 211 -264 b 149 -117 176 -264 149 -264 l 149 910 b 75 888 131 901 106 893 b 15 882 53 883 32 882 l 0 882 l 0 868 b 65 719 18 868 65 861 l 65 -117 b 3 -264 65 -264 38 -264 l 0 -264 l 0 -278 l 214 -278 z "},"2":{"ha":724,"x_min":0,"x_max":0,"o":"m 654 -79 l 640 -78 b 514 -193 638 -107 614 -193 l 31 -193 b 643 613 111 138 643 243 b 326 910 643 796 515 910 b 68 806 258 910 169 893 b 54 799 63 801 57 799 b 40 822 44 799 40 808 l 26 824 l 19 525 l 33 525 b 321 896 42 756 160 896 b 553 601 485 896 553 758 b 0 -278 553 240 0 114 l 632 -278 z "},"3":{"ha":724,"x_min":0,"x_max":0,"o":"m 654 99 b 394 468 654 282 567 433 b 581 686 518 489 581 581 b 297 911 581 810 485 911 b 103 853 231 911 147 886 b 88 847 97 849 92 847 b 60 875 72 847 60 858 l 46 875 l 47 576 l 61 576 b 296 896 74 764 160 896 b 497 686 436 896 497 799 b 322 476 497 571 451 476 l 317 476 l 317 463 b 569 99 494 463 569 300 b 303 -264 569 -101 481 -264 b 15 108 142 -264 26 -108 l 0 107 l 7 -190 l 21 -190 b 31 -171 21 -178 25 -171 b 47 -181 36 -171 40 -174 b 303 -278 104 -239 215 -278 b 654 99 535 -278 654 -110 z "},"4":{"ha":743,"x_min":0,"x_max":0,"o":"m 660 113 b 619 76 658 92 656 76 l 576 76 l 576 910 l 550 910 l 0 11 l 492 11 l 492 -117 b 431 -264 492 -264 464 -264 l 428 -264 l 428 -278 l 642 -278 l 642 -264 l 639 -264 b 576 -117 604 -264 576 -264 l 576 11 l 667 11 l 674 113 z m 492 76 l 57 76 l 492 789 z "},"5":{"ha":722,"x_min":0,"x_max":0,"o":"m 653 99 b 299 476 653 276 564 476 b 25 354 160 476 63 394 l 54 825 l 590 825 l 603 960 l 588 961 b 532 910 586 932 583 910 l 46 910 l 10 340 b 24 336 10 340 15 338 b 299 463 131 449 246 463 b 503 356 392 463 458 421 b 569 99 547 290 569 200 b 303 -264 569 -101 479 -264 b 14 108 142 -264 25 -108 l 0 107 l 7 -190 l 21 -190 b 31 -171 21 -178 25 -171 b 47 -181 36 -171 40 -174 b 303 -278 104 -239 214 -278 b 653 99 535 -278 653 -110 z "},"6":{"ha":743,"x_min":0,"x_max":0,"o":"m 336 476 b 144 399 267 476 194 450 b 522 896 261 707 522 896 l 515 910 b 0 138 250 744 0 463 b 336 -278 0 -125 113 -278 b 674 99 560 -278 674 -110 b 336 476 674 307 560 476 z m 336 -264 b 83 99 160 -264 83 -101 b 336 463 83 365 194 463 b 589 99 514 463 589 300 b 336 -264 589 -101 514 -264 z "},"7":{"ha":681,"x_min":0,"x_max":0,"o":"m 611 910 l 22 910 l 0 711 l 14 711 b 140 825 17 740 40 825 l 571 825 b 213 -278 379 413 228 -157 l 317 -278 b 611 910 401 332 611 906 z "},"8":{"ha":744,"x_min":0,"x_max":0,"o":"m 414 468 b 610 686 549 493 610 581 b 338 911 610 810 525 911 b 67 686 150 911 67 810 b 261 468 67 581 128 493 b 0 99 88 435 0 282 b 338 -278 0 -110 114 -278 b 675 99 561 -278 675 -110 b 414 468 675 282 588 435 z m 150 686 b 338 896 150 801 197 896 b 525 686 479 896 525 801 b 338 476 525 569 479 476 b 150 686 197 476 150 569 z m 338 -264 b 85 99 161 -264 85 -101 b 338 463 85 300 161 463 b 590 99 515 463 590 300 b 338 -264 590 -101 515 -264 z "},"9":{"ha":744,"x_min":0,"x_max":0,"o":"m 338 156 b 531 233 407 156 481 182 b 153 -264 413 -74 153 -264 l 160 -278 b 675 494 425 -112 675 171 b 338 910 675 757 561 910 b 0 533 114 910 0 742 b 338 156 0 325 114 156 z m 338 896 b 590 533 515 896 590 733 b 338 171 590 267 481 171 b 85 533 161 171 85 333 b 338 896 85 733 161 896 z "}," ":{"ha":417,"x_min":0,"x_max":0,"o":""}," ":{"ha":417,"x_min":0,"x_max":0,"o":""},"!":{"ha":193,"x_min":0,"x_max":0,"o":"m 64 -3 l 124 911 l 0 911 l 50 -3 z m 57 -175 b 6 -226 24 -175 6 -197 b 57 -278 6 -254 22 -278 b 108 -226 90 -278 108 -254 b 57 -175 108 -197 90 -175 z "},"\"":{"ha":293,"x_min":0,"x_max":0,"o":"m 103 857 b 51 910 101 883 83 910 b 0 858 18 910 0 888 b 51 807 0 831 17 807 b 75 813 60 807 68 810 b 21 682 67 717 21 682 b 29 672 21 682 25 676 b 103 857 103 735 103 825 z m 224 857 b 172 910 222 883 204 910 b 121 858 139 910 121 888 b 172 807 121 831 138 807 b 196 813 181 807 189 810 b 142 682 188 717 142 682 b 150 672 142 682 146 676 b 224 857 224 735 224 825 z "},"#":{"ha":1549,"x_min":0,"x_max":0,"o":"m 1475 582 l 1479 594 l 1143 596 l 1263 911 l 1247 911 l 1128 596 l 561 596 l 681 911 l 665 911 l 547 596 l 211 596 l 206 582 l 542 582 l 342 51 l 4 51 l 0 38 l 336 38 l 218 -278 l 232 -278 l 351 38 l 918 38 l 800 -278 l 814 -278 l 933 38 l 1269 38 l 1274 50 l 938 51 l 1138 582 z m 924 51 l 356 51 l 556 582 l 1124 582 z "},"$":{"ha":793,"x_min":0,"x_max":0,"o":"m 369 903 b 679 529 533 890 638 778 l 693 531 l 656 835 l 642 833 l 642 826 b 631 808 642 814 638 808 b 613 818 626 808 619 811 b 369 917 553 874 465 911 l 369 1076 l 354 1076 l 354 917 l 342 917 b 26 650 144 917 26 793 b 354 301 26 451 193 375 l 354 -269 b 14 110 194 -260 49 -153 l 0 107 l 36 -196 l 50 -194 l 50 -185 b 63 -165 50 -171 54 -165 b 85 -176 68 -165 76 -169 b 354 -283 156 -240 257 -278 l 354 -444 l 369 -444 l 369 -285 l 379 -285 b 724 24 582 -285 724 -132 b 369 393 724 236 538 313 z m 107 672 b 339 903 107 897 325 903 l 354 903 l 354 400 b 107 672 224 464 107 532 z m 379 -271 b 369 -269 375 -271 372 -271 l 369 294 b 653 -3 515 226 653 158 b 379 -271 653 -268 390 -271 z "},"%":{"ha":1118,"x_min":0,"x_max":0,"o":"m 1010 910 l 13 -278 l 31 -278 l 1028 910 z m 197 215 b 394 563 328 215 394 371 b 197 910 394 754 328 910 b 0 563 67 910 0 754 b 197 215 0 371 67 215 z m 197 903 b 346 563 301 903 346 750 b 197 224 346 375 301 224 b 50 563 94 224 50 375 b 197 903 50 750 94 903 z m 851 418 b 654 71 721 418 654 263 b 851 -278 654 -122 721 -278 b 1049 71 982 -278 1049 -122 b 851 418 1049 263 982 418 z m 851 -269 b 704 71 749 -269 704 -117 b 851 410 704 257 749 410 b 1000 71 956 410 1000 257 b 851 -269 1000 -117 956 -269 z "},"&":{"ha":914,"x_min":0,"x_max":0,"o":"m 682 606 b 740 446 722 539 740 486 b 542 292 740 350 644 318 b 332 125 435 264 332 238 b 336 85 332 113 333 100 l 444 85 b 421 179 429 125 421 156 b 544 279 421 236 463 258 b 557 282 549 279 553 281 b 589 100 575 246 589 186 b 336 -264 589 -101 514 -264 b 83 100 160 -264 83 -101 b 336 463 83 300 160 463 l 336 476 b 150 686 196 476 150 571 b 336 896 150 803 196 896 b 503 731 424 896 468 849 b 514 733 510 732 507 732 l 499 876 b 336 911 457 899 403 911 b 65 686 150 911 65 811 b 260 469 65 581 126 493 b 0 100 88 435 0 282 b 336 -278 0 -108 113 -278 b 674 100 560 -278 674 -108 b 635 304 674 193 649 274 b 810 525 728 336 810 389 b 797 626 810 554 806 588 z "},"'":{"ha":172,"x_min":0,"x_max":0,"o":"m 103 857 b 51 910 101 883 83 910 b 0 858 18 910 0 888 b 51 807 0 831 17 807 b 75 813 60 807 68 810 b 21 682 67 717 21 682 b 29 672 21 682 25 676 b 103 857 103 735 103 825 z "},"(":{"ha":483,"x_min":0,"x_max":0,"o":"m 414 949 b 0 315 117 949 0 643 b 414 -318 0 -12 117 -318 l 414 -304 b 89 315 165 -304 89 -6 b 414 933 89 635 165 933 z "},")":{"ha":483,"x_min":0,"x_max":0,"o":"m 0 933 b 325 315 249 933 325 635 b 0 -304 325 -6 249 -304 l 0 -318 b 414 315 297 -318 414 -12 b 0 949 414 643 297 949 z "},"*":{"ha":465,"x_min":0,"x_max":0,"o":"m 176 910 l 197 732 l 200 732 l 222 910 z m 176 718 l 15 794 l 0 750 l 175 715 z m 60 561 l 97 533 l 185 689 l 182 692 z m 210 689 l 296 532 l 333 560 l 213 690 z m 221 714 l 396 747 l 382 792 l 219 717 z "},"+":{"ha":683,"x_min":0,"x_max":0,"o":"m 614 104 l 614 118 l 314 118 l 314 418 l 300 418 l 300 118 l 0 118 l 0 104 l 300 104 l 300 -196 l 314 -196 l 314 104 z "},",":{"ha":172,"x_min":0,"x_max":0,"o":"m 103 -228 b 51 -175 101 -201 83 -175 b 0 -226 18 -175 0 -197 b 51 -278 0 -254 17 -278 b 75 -272 60 -278 68 -275 b 21 -403 67 -368 21 -403 b 29 -412 21 -403 25 -408 b 103 -228 103 -350 103 -260 z "},"-":{"ha":685,"x_min":0,"x_max":0,"o":"m 615 118 l 0 118 l 0 104 l 615 104 z "},"­":{"ha":685,"x_min":0,"x_max":0,"o":"m 615 118 l 0 118 l 0 104 l 615 104 z "},".":{"ha":171,"x_min":0,"x_max":0,"o":"m 51 -175 b 0 -226 18 -175 0 -197 b 51 -278 0 -254 15 -278 b 101 -226 85 -278 101 -254 b 51 -175 101 -197 85 -175 z "},"/":{"ha":532,"x_min":0,"x_max":0,"o":"m 463 911 l 447 911 l 0 -278 l 15 -278 z "},":":{"ha":171,"x_min":0,"x_max":0,"o":"m 51 -56 b 0 -107 18 -56 0 -78 b 51 -158 0 -135 15 -158 b 101 -107 85 -158 101 -135 b 51 -56 101 -78 85 -56 z m 51 281 b 101 332 85 281 101 303 b 51 382 101 360 85 382 b 0 332 18 382 0 360 b 51 281 0 303 15 281 z "},";":{"ha":171,"x_min":0,"x_max":0,"o":"m 50 -56 b 0 -107 18 -56 0 -78 b 50 -158 0 -135 15 -158 b 74 -153 60 -158 67 -156 b 19 -283 67 -249 19 -283 b 28 -293 19 -283 25 -289 b 101 -108 101 -231 101 -140 b 50 -56 100 -82 83 -56 z m 51 281 b 101 332 85 281 101 303 b 51 382 101 360 85 382 b 0 332 18 382 0 360 b 51 281 0 303 15 281 z "},"<":{"ha":590,"x_min":0,"x_max":0,"o":"m 521 318 l 515 332 l 18 119 l 0 111 l 18 104 l 515 -108 l 521 -94 l 36 111 z "},"=":{"ha":685,"x_min":0,"x_max":0,"o":"m 0 285 l 0 271 l 615 271 l 615 285 z m 0 -60 l 615 -60 l 615 -44 l 0 -44 z "},">":{"ha":590,"x_min":0,"x_max":0,"o":"m 0 318 l 485 111 l 0 -94 l 6 -108 l 503 104 l 521 111 l 503 119 l 6 332 z "},"?":{"ha":693,"x_min":0,"x_max":0,"o":"m 307 911 b 49 807 238 911 150 894 b 35 800 43 801 38 800 b 21 824 25 800 21 810 l 7 824 l 0 525 l 14 525 b 301 896 22 756 140 896 b 533 618 465 896 533 775 b 244 -3 533 357 244 240 l 260 -3 b 624 629 269 256 624 296 b 307 911 624 797 496 911 z m 256 -175 b 206 -226 222 -175 206 -197 b 256 -278 206 -254 221 -278 b 307 -226 289 -278 307 -254 b 256 -175 307 -197 289 -175 z "},"@":{"ha":1257,"x_min":0,"x_max":0,"o":"m 593 706 b 0 113 265 706 0 440 b 593 -482 0 -215 265 -482 b 818 -437 674 -482 749 -465 l 810 -425 b 593 -468 743 -453 669 -468 b 14 113 274 -468 14 -207 b 593 692 14 432 274 692 b 1174 113 913 692 1174 432 b 931 -212 1174 0 1140 -212 b 775 -36 888 -212 775 -194 l 775 349 b 571 442 692 431 629 442 b 333 119 451 442 333 328 b 517 -128 333 -56 421 -128 b 715 64 643 -128 699 -14 l 715 -44 b 924 -232 715 -157 794 -232 b 1188 113 1021 -232 1188 -174 b 593 706 1188 440 921 706 z m 546 -104 b 396 142 440 -104 396 6 b 572 432 396 331 485 432 b 715 321 647 432 697 385 l 715 107 b 546 -104 701 -3 640 -104 z "},"A":{"ha":949,"x_min":0,"x_max":0,"o":"m 493 90 l 488 90 b 449 96 478 90 464 92 b 401 118 433 99 417 106 b 357 94 386 106 372 97 b 321 90 342 92 331 90 l 315 90 b 311 89 314 89 313 89 l 190 85 l 419 782 l 629 83 z m 190 85 l 311 76 l 318 76 b 356 71 328 76 340 75 b 401 47 371 67 386 60 b 450 71 418 60 435 67 b 486 76 465 75 476 76 l 493 76 l 629 83 l 690 -124 b 707 -208 701 -158 707 -187 b 694 -251 707 -229 703 -243 b 665 -264 686 -260 676 -264 l 665 -278 l 879 -278 l 879 -264 b 826 -228 861 -264 844 -251 b 781 -128 808 -204 793 -171 l 471 910 l 447 910 l 92 -168 b 50 -243 79 -204 65 -229 b 0 -264 35 -257 18 -264 l 0 -278 l 143 -278 l 143 -264 b 113 -253 131 -264 121 -260 b 100 -215 104 -246 100 -233 b 110 -161 100 -200 103 -182 z "},"B":{"ha":856,"x_min":0,"x_max":0,"o":"m 503 374 b 708 653 539 388 708 458 b 436 910 708 785 624 910 l 0 910 l 0 896 b 64 747 36 896 64 894 l 64 -117 b 3 -264 64 -264 36 -264 l 0 -264 l 0 -278 l 458 -278 b 786 46 639 -278 786 -143 b 503 374 786 271 615 349 z m 621 -172 b 388 -264 571 -229 493 -264 l 204 -264 b 149 -117 172 -262 149 -253 l 149 747 b 214 896 149 894 178 896 l 365 896 b 618 651 546 896 618 781 b 300 365 618 413 390 365 b 696 51 511 365 696 271 b 621 -172 696 -36 671 -115 z "},"C":{"ha":936,"x_min":0,"x_max":0,"o":"m 867 -42 l 858 -35 b 517 -235 781 -168 643 -235 b 89 340 269 -235 89 -1 b 471 903 89 633 222 903 l 489 903 b 800 611 649 894 771 786 l 814 525 l 828 526 l 775 878 l 761 876 l 761 868 b 742 843 761 849 753 843 b 721 849 735 843 728 846 b 471 917 643 892 560 917 b 0 317 174 917 0 644 b 476 -285 0 -12 164 -285 b 867 -42 628 -285 781 -207 z "},"D":{"ha":963,"x_min":0,"x_max":0,"o":"m 0 910 l 0 896 b 65 747 36 896 65 894 l 65 -117 b 3 -264 65 -264 38 -264 l 0 -264 l 0 -278 l 424 -278 b 893 317 721 -278 893 -11 b 424 910 893 644 721 910 z m 211 -264 b 149 -117 178 -264 149 -264 l 149 747 b 214 896 149 894 178 896 l 424 896 b 806 317 671 896 806 636 b 424 -264 806 -4 671 -264 z "},"E":{"ha":854,"x_min":0,"x_max":0,"o":"m 771 81 b 524 -264 760 -37 719 -264 l 211 -264 b 149 -117 176 -264 149 -264 l 149 747 b 214 896 149 894 178 896 l 481 896 b 718 632 665 896 707 750 l 732 633 l 704 910 l 0 910 l 0 896 b 64 747 35 896 64 894 l 64 -117 b 3 -264 64 -264 36 -264 l 0 -264 l 0 -278 l 746 -278 l 785 79 z m 214 317 l 340 313 b 493 163 456 311 493 246 l 507 163 l 507 471 l 493 471 b 342 321 493 386 454 325 z "},"F":{"ha":801,"x_min":0,"x_max":0,"o":"m 704 910 l 0 910 l 0 896 b 64 747 35 896 64 894 l 64 -117 b 1 -264 64 -264 36 -264 l 0 -264 l 0 -278 l 213 -278 l 213 -264 l 211 -264 b 149 -117 176 -264 149 -264 l 149 747 b 213 896 149 894 178 896 l 481 896 b 718 632 665 896 707 750 l 732 633 z m 213 317 l 340 313 b 492 163 456 311 492 246 l 506 163 l 506 471 l 492 471 b 340 321 492 386 454 325 z "},"G":{"ha":989,"x_min":0,"x_max":0,"o":"m 663 324 l 663 310 l 665 310 b 771 160 689 310 771 306 l 771 -144 b 517 -242 697 -210 604 -242 b 89 340 269 -242 89 -1 b 471 903 89 633 222 903 l 489 903 b 800 611 649 894 771 786 l 813 525 l 828 526 l 775 878 l 761 876 l 761 868 b 742 843 761 849 753 843 b 721 849 735 843 728 846 b 471 917 642 892 560 917 b 0 317 174 917 0 644 b 392 -278 0 19 135 -233 b 475 -285 418 -282 446 -285 b 779 -153 597 -285 721 -214 l 844 -278 l 856 -278 l 856 160 b 919 310 856 308 885 310 l 919 324 z "},"H":{"ha":943,"x_min":0,"x_max":0,"o":"m 149 317 l 347 310 l 351 310 b 389 306 360 310 372 308 b 438 281 404 301 421 293 b 490 306 456 293 474 301 b 526 310 506 308 518 310 l 529 310 l 725 317 l 529 322 b 490 328 521 322 508 324 b 438 351 472 331 456 339 b 390 328 422 339 407 331 b 351 322 374 324 361 322 l 347 322 z m 725 747 l 725 -117 b 717 -221 725 -165 722 -200 b 694 -257 711 -242 704 -253 b 663 -264 685 -261 675 -264 l 660 -264 l 660 -278 l 874 -278 l 874 -264 l 872 -264 b 840 -257 860 -264 850 -261 b 818 -221 831 -253 824 -242 b 810 -117 813 -200 810 -165 l 810 747 b 818 853 810 796 813 832 b 842 890 824 874 832 886 b 874 896 851 894 861 896 l 874 910 l 660 910 l 660 896 b 693 890 672 896 683 894 b 717 853 703 886 710 874 b 725 747 722 832 725 796 z m 149 -117 l 149 747 b 158 853 149 796 151 832 b 182 890 164 874 172 886 b 214 896 192 894 201 896 l 214 910 l 0 910 l 0 896 b 33 890 13 896 24 894 b 57 853 43 886 50 874 b 65 747 63 832 65 796 l 65 -117 b 57 -221 65 -165 63 -200 b 35 -257 51 -242 44 -253 b 3 -264 25 -261 14 -264 l 0 -264 l 0 -278 l 214 -278 l 214 -264 l 211 -264 b 181 -257 200 -264 190 -261 b 157 -221 171 -253 163 -242 b 149 -117 151 -200 149 -165 z "},"I":{"ha":283,"x_min":0,"x_max":0,"o":"m 214 910 l 0 910 l 0 896 b 65 747 36 896 65 894 l 65 -117 b 3 -264 65 -264 38 -264 l 0 -264 l 0 -278 l 214 -278 l 214 -264 l 211 -264 b 149 -117 176 -264 149 -264 l 149 747 b 214 896 149 894 178 896 z "},"J":{"ha":685,"x_min":0,"x_max":0,"o":"m 615 910 l 403 910 l 403 896 b 447 876 419 896 436 896 b 467 747 460 858 467 821 l 467 -75 b 278 -264 467 -185 393 -264 b 14 68 174 -264 63 -176 l 0 65 l 7 19 l 39 -214 l 53 -212 l 53 -207 b 65 -189 53 -196 58 -189 b 82 -199 71 -189 76 -193 b 278 -278 139 -253 201 -278 b 551 -22 496 -278 551 -101 l 551 747 b 615 896 551 894 581 896 z "},"K":{"ha":914,"x_min":0,"x_max":0,"o":"m 294 401 l 661 817 b 782 896 710 871 750 896 l 782 910 l 639 910 l 639 896 b 671 869 656 896 671 888 b 642 815 671 857 663 839 l 150 260 l 150 747 b 214 896 150 894 178 896 l 214 910 l 0 910 l 0 896 b 46 876 18 896 35 896 b 65 747 58 858 65 821 l 65 -117 b 3 -264 65 -264 38 -264 l 0 -264 l 0 -278 l 214 -278 l 214 -264 l 211 -264 b 150 -117 178 -264 150 -264 l 150 238 l 238 338 l 626 -179 b 654 -239 647 -204 654 -224 b 631 -264 654 -256 644 -264 l 631 -278 l 844 -278 l 844 -264 b 746 -196 815 -264 793 -254 z "},"L":{"ha":826,"x_min":0,"x_max":0,"o":"m 743 81 b 496 -264 732 -37 692 -264 l 211 -264 b 149 -117 176 -264 149 -264 l 149 747 b 214 896 149 894 178 896 l 214 910 l 0 910 l 0 896 b 65 747 36 896 65 894 l 65 -117 b 3 -264 65 -264 36 -264 l 0 -264 l 0 -278 l 718 -278 l 757 79 z "},"M":{"ha":1125,"x_min":0,"x_max":0,"o":"m 1056 910 l 907 910 l 528 108 l 126 910 l 0 910 l 0 896 b 46 876 18 896 35 896 b 65 747 57 858 65 821 l 65 -115 b 0 -264 65 -262 36 -264 l 0 -278 l 143 -278 l 143 -264 b 99 -244 126 -264 110 -264 b 79 -115 86 -226 79 -189 l 79 808 l 489 -11 l 907 876 l 907 -117 b 844 -264 907 -264 879 -264 l 843 -264 l 843 -278 l 1056 -278 l 1056 -264 l 1054 -264 b 992 -117 1019 -264 992 -264 l 992 747 b 1056 896 992 894 1021 896 z "},"N":{"ha":874,"x_min":0,"x_max":0,"o":"m 661 910 l 661 896 b 706 876 678 896 694 896 b 725 747 718 858 725 821 l 725 -192 l 125 910 l 0 910 l 0 896 b 46 876 18 896 35 896 b 65 747 57 858 65 821 l 65 -115 b 0 -264 65 -262 36 -264 l 0 -278 l 144 -278 l 144 -264 b 99 -244 126 -264 110 -264 b 79 -115 86 -226 79 -189 l 79 819 l 676 -278 l 739 -278 l 739 747 b 804 896 739 894 768 896 l 804 910 z "},"O":{"ha":1010,"x_min":0,"x_max":0,"o":"m 469 917 b 0 317 172 917 0 644 b 469 -285 0 -12 172 -285 b 940 317 768 -285 940 -12 b 469 917 940 644 768 917 z m 469 -271 b 89 317 222 -271 89 -4 b 469 903 89 636 222 903 b 851 317 718 903 851 636 b 469 -271 851 -4 718 -271 z "},"P":{"ha":857,"x_min":0,"x_max":0,"o":"m 696 615 b 329 244 696 383 496 286 b 283 235 314 240 299 238 b 265 232 278 233 271 232 b 788 613 467 242 788 335 b 458 910 788 788 640 910 l 0 910 l 0 896 b 65 747 36 896 65 894 l 65 -117 b 3 -264 65 -264 38 -264 l 0 -264 l 0 -278 l 214 -278 l 214 -264 l 211 -264 b 150 -117 178 -264 150 -264 l 150 747 b 214 896 150 894 178 896 l 389 896 b 696 615 600 896 696 758 z "},"Q":{"ha":1010,"x_min":0,"x_max":0,"o":"m 940 317 b 471 917 940 644 768 917 b 0 317 174 917 0 644 b 471 -285 0 -12 174 -285 b 940 317 768 -285 940 -12 z m 89 317 b 471 903 89 636 222 903 b 851 317 718 903 851 636 b 471 -271 851 -4 718 -271 b 89 317 222 -271 89 -4 z m 985 -379 b 951 -447 985 -379 983 -422 b 890 -465 935 -460 914 -465 b 378 -292 761 -465 551 -292 b 250 -335 332 -292 289 -303 b 331 -315 276 -321 304 -315 b 836 -536 499 -315 672 -536 b 942 -500 872 -536 907 -526 b 999 -383 996 -454 999 -383 z "},"R":{"ha":908,"x_min":0,"x_max":0,"o":"m 839 -215 l 831 -204 b 764 -239 831 -204 804 -239 b 324 235 619 -239 540 144 b 786 613 493 244 786 335 b 458 910 786 788 639 910 l 0 910 l 0 896 b 64 747 36 896 64 894 l 64 -117 b 3 -264 64 -264 36 -264 l 0 -264 l 0 -278 l 214 -278 l 214 -264 l 211 -264 b 149 -117 176 -264 149 -264 l 149 747 b 214 896 149 894 178 896 l 388 896 b 696 615 599 896 696 758 b 329 244 696 383 494 286 b 283 235 314 240 299 238 b 264 232 276 233 271 232 b 465 -18 344 232 424 82 b 711 -278 521 -151 585 -278 b 839 -215 806 -278 839 -215 z "},"S":{"ha":794,"x_min":0,"x_max":0,"o":"m 725 24 b 108 671 725 408 108 349 b 339 903 108 897 326 903 b 679 529 521 903 636 793 l 693 531 l 657 835 l 643 832 l 643 826 b 632 808 643 814 639 808 b 614 818 626 808 621 811 b 342 917 549 879 450 917 b 28 650 146 917 28 792 b 654 -4 28 265 654 339 b 379 -271 654 -268 392 -271 b 14 108 210 -271 51 -167 l 0 107 l 38 -196 l 51 -194 l 51 -185 b 64 -165 51 -171 56 -165 b 86 -176 69 -165 78 -169 b 379 -285 163 -246 274 -285 b 725 24 583 -285 725 -132 z "},"T":{"ha":965,"x_min":0,"x_max":0,"o":"m 867 910 l 28 910 l 0 633 l 14 632 b 250 896 25 750 65 896 l 340 896 b 406 747 376 896 406 894 l 406 -117 b 343 -264 406 -264 378 -264 l 340 -264 l 340 -278 l 554 -278 l 554 -264 l 551 -264 b 489 -117 518 -264 489 -264 l 489 747 b 554 896 489 894 518 896 l 644 896 b 881 632 829 896 869 750 l 896 633 z "},"U":{"ha":919,"x_min":0,"x_max":0,"o":"m 707 910 l 707 896 b 753 876 725 896 740 896 b 772 747 764 858 772 821 l 772 60 b 450 -256 772 -133 621 -256 b 150 47 278 -256 150 -146 l 150 747 b 214 896 150 894 178 896 l 214 910 l 0 910 l 0 896 b 46 876 18 896 35 896 b 65 747 58 858 65 821 l 65 71 b 428 -278 65 -158 229 -278 b 786 63 628 -278 786 -136 l 786 747 b 850 896 786 894 815 896 l 850 910 z "},"V":{"ha":949,"x_min":0,"x_max":0,"o":"m 407 -278 l 431 -278 l 786 800 b 879 896 813 874 843 896 l 879 910 l 736 910 l 736 896 b 778 849 760 896 778 883 b 768 794 778 835 775 817 l 458 -150 l 188 756 b 172 840 176 792 172 819 b 214 896 172 882 190 896 l 214 910 l 0 910 l 0 896 b 99 760 35 896 72 847 z "},"W":{"ha":1375,"x_min":0,"x_max":0,"o":"m 1163 910 l 1163 896 b 1206 847 1186 896 1206 883 b 1196 794 1206 833 1203 815 l 886 -150 l 689 506 l 786 800 b 879 896 813 874 843 896 l 879 910 l 735 910 l 735 896 b 778 847 758 896 778 883 b 768 794 778 833 775 815 l 682 531 l 614 756 b 599 839 603 790 599 818 b 640 896 599 882 618 896 l 640 910 l 426 910 l 426 896 b 525 760 461 896 499 847 l 636 390 l 458 -150 l 188 756 b 172 840 176 792 172 819 b 214 896 172 882 190 896 l 214 910 l 0 910 l 0 896 b 99 760 33 896 72 847 l 407 -278 l 431 -278 l 643 365 l 835 -278 l 858 -278 l 1214 800 b 1306 896 1239 874 1269 896 l 1306 910 z "},"X":{"ha":914,"x_min":0,"x_max":0,"o":"m 457 369 l 729 824 b 831 896 758 874 794 896 l 831 910 l 686 910 l 686 896 b 724 860 707 896 724 883 b 710 818 724 849 719 835 l 450 385 l 232 800 b 211 864 218 828 211 849 b 246 896 211 888 226 896 l 246 910 l 32 910 l 32 896 b 143 786 64 896 97 869 l 399 299 l 111 -181 b 0 -264 67 -244 39 -264 l 0 -278 l 144 -278 l 144 -264 b 111 -229 126 -264 111 -253 b 129 -176 111 -215 117 -199 l 407 285 l 646 -171 b 665 -231 660 -197 665 -217 b 632 -264 665 -256 650 -264 l 632 -278 l 844 -278 l 844 -264 b 739 -167 811 -264 778 -239 z "},"Y":{"ha":938,"x_min":0,"x_max":0,"o":"m 474 265 l 764 810 b 868 896 796 874 832 896 l 868 910 l 724 910 l 724 896 b 763 857 744 896 763 883 b 749 808 763 844 758 828 l 467 281 l 201 789 b 182 857 188 818 182 840 b 214 896 182 883 196 896 l 214 910 l 0 910 l 0 896 b 108 786 32 896 68 865 l 390 244 l 390 -117 b 328 -264 390 -264 363 -264 l 325 -264 l 325 -278 l 539 -278 l 539 -264 l 536 -264 b 474 -117 501 -264 474 -264 z "},"Z":{"ha":817,"x_min":0,"x_max":0,"o":"m 719 81 b 472 -264 708 -37 669 -264 l 104 -264 l 747 910 l 74 910 l 46 633 l 60 632 b 296 896 71 750 111 896 l 643 896 l 0 -278 l 696 -278 l 733 79 z "},"[":{"ha":218,"x_min":0,"x_max":0,"o":"m 149 933 l 149 949 l 0 949 l 0 -318 l 149 -318 l 149 -304 l 85 -304 l 85 933 z "},"\\":{"ha":532,"x_min":0,"x_max":0,"o":"m 0 911 l 447 -278 l 463 -278 l 15 911 z "},"]":{"ha":218,"x_min":0,"x_max":0,"o":"m 0 933 l 65 933 l 65 -304 l 0 -304 l 0 -318 l 149 -318 l 149 949 l 0 949 z "},"^":{"ha":326,"x_min":0,"x_max":0,"o":"m 144 1156 l 129 1169 l 113 1156 l 0 1057 l 11 1057 l 129 1144 l 246 1057 l 257 1057 z "},"_":{"ha":976,"x_min":0,"x_max":0,"o":"m 907 -264 l 0 -264 l 0 -278 l 907 -278 z "},"`":{"ha":244,"x_min":0,"x_max":0,"o":"m 39 1174 l 0 1174 l 163 1053 l 175 1053 z "},"a":{"ha":793,"x_min":0,"x_max":0,"o":"m 717 -143 b 646 -243 717 -143 699 -243 b 615 -201 629 -243 615 -236 l 615 388 b 331 517 499 500 411 517 b 0 67 164 517 0 357 b 256 -279 0 -178 121 -279 b 531 -11 432 -279 508 -119 l 531 -190 b 606 -279 531 -272 588 -279 b 724 -144 699 -279 719 -165 z m 294 -247 b 86 96 149 -247 86 -93 b 332 503 86 360 210 503 b 531 347 436 503 507 438 l 531 47 b 294 -247 513 -106 428 -247 z "},"b":{"ha":750,"x_min":0,"x_max":0,"o":"m 425 517 b 149 249 249 517 171 357 l 149 965 b 79 936 131 956 107 944 b 0 924 49 928 21 924 l 0 910 l 7 910 b 64 760 28 910 64 903 l 64 -278 l 78 -278 l 104 -142 b 354 -279 179 -246 272 -279 b 681 175 528 -279 681 -117 b 425 517 681 411 558 517 z m 360 -265 b 149 -86 256 -265 179 -193 l 149 190 b 385 485 167 343 253 485 b 594 142 531 485 594 331 b 360 -265 594 -122 482 -265 z "},"c":{"ha":640,"x_min":0,"x_max":0,"o":"m 319 501 b 525 271 410 501 490 438 b 539 274 533 274 531 272 l 525 431 b 319 517 490 468 406 517 b 0 118 106 517 0 335 b 317 -279 0 -97 107 -279 b 571 -107 399 -279 508 -244 l 563 -101 b 343 -249 518 -196 442 -249 b 86 119 169 -249 86 -89 b 319 501 86 326 153 501 z "},"d":{"ha":750,"x_min":0,"x_max":0,"o":"m 678 -222 b 615 -75 643 -222 615 -222 l 615 965 b 546 936 599 956 575 944 b 467 924 515 928 488 924 l 467 910 l 474 910 b 532 760 494 910 532 903 l 532 422 b 318 517 478 481 401 517 b 0 67 153 517 0 357 b 256 -279 0 -178 122 -279 b 532 -11 432 -279 508 -119 l 532 -278 l 681 -236 l 681 -222 z m 532 47 b 294 -247 513 -106 428 -247 b 86 96 149 -247 86 -93 b 321 503 86 360 197 503 b 532 324 424 503 501 431 z "},"e":{"ha":663,"x_min":0,"x_max":0,"o":"m 575 -117 l 567 -111 b 343 -257 522 -206 442 -257 b 86 118 169 -257 86 -89 b 307 493 86 326 161 493 b 500 232 397 493 493 432 l 113 226 l 500 218 l 593 215 b 592 233 592 222 592 228 b 308 507 567 463 399 507 b 0 118 108 507 0 333 b 317 -287 0 -106 107 -287 b 575 -117 399 -287 513 -254 z "},"f":{"ha":572,"x_min":0,"x_max":0,"o":"m 342 957 b 490 736 461 957 490 736 l 503 736 l 497 894 b 342 965 497 894 443 965 b 164 738 303 965 164 953 l 164 501 l 0 501 l 0 488 l 164 488 l 164 -118 b 103 -264 164 -262 138 -264 l 99 -264 l 99 -278 l 313 -278 l 313 -264 l 308 -264 b 249 -118 275 -264 249 -262 l 249 488 l 460 488 l 460 501 l 249 501 l 249 833 b 342 957 249 900 274 957 z "},"g":{"ha":686,"x_min":0,"x_max":0,"o":"m 331 483 b 0 33 165 483 0 325 b 256 -311 0 -210 122 -311 b 532 -44 432 -311 510 -153 l 532 -469 b 336 -771 532 -574 518 -771 b 64 -444 171 -771 101 -581 l 51 -450 l 79 -707 b 333 -783 79 -707 210 -783 b 617 -428 438 -783 617 -737 l 617 354 b 331 483 500 467 411 483 z m 296 -279 b 86 64 150 -279 86 -125 b 333 471 86 328 211 471 b 532 314 438 471 507 404 l 532 15 b 296 -279 514 -137 428 -279 z "},"h":{"ha":793,"x_min":0,"x_max":0,"o":"m 719 -264 b 658 -118 685 -264 658 -262 l 658 251 b 403 508 658 422 547 508 b 150 356 307 508 208 450 l 150 965 b 79 936 132 956 108 944 b 0 924 49 926 21 924 l 0 910 l 7 910 b 65 760 28 910 65 903 l 65 -118 b 4 -264 65 -262 39 -264 l 0 -264 l 0 -279 l 214 -279 l 214 -264 l 210 -264 b 150 -118 176 -264 150 -262 l 150 324 b 399 494 196 425 307 494 b 574 264 543 494 574 397 l 574 -118 b 514 -264 574 -262 547 -264 l 510 -264 l 510 -279 l 724 -279 l 724 -264 z "},"i":{"ha":282,"x_min":0,"x_max":0,"o":"m 210 -264 b 149 -118 175 -264 149 -262 l 149 501 b 78 472 131 492 107 481 b 0 460 47 464 21 460 l 0 446 l 7 446 b 64 296 26 446 64 439 l 64 -118 b 3 -264 64 -262 38 -264 l 0 -264 l 0 -279 l 213 -279 l 213 -264 z m 107 649 b 176 719 149 649 176 681 b 107 789 176 758 150 789 b 36 719 63 789 36 758 b 107 649 36 681 64 649 z "},"j":{"ha":282,"x_min":0,"x_max":0,"o":"m 0 460 l 0 446 l 7 446 b 65 296 28 446 65 439 l 65 -267 b -53 -539 65 -337 49 -471 l -44 -553 b 149 -231 -44 -553 149 -475 l 149 501 b 79 472 132 492 108 481 b 0 460 49 464 21 460 z m 107 789 b 36 719 63 789 36 758 b 107 649 36 681 64 649 b 176 719 149 649 176 681 b 107 789 176 758 150 789 z "},"k":{"ha":768,"x_min":0,"x_max":0,"o":"m 297 183 l 493 390 b 649 488 563 465 608 488 l 649 501 l 494 501 l 494 488 b 518 465 507 488 518 481 b 474 389 518 450 507 425 l 149 47 l 149 965 b 78 936 131 956 107 944 b 0 924 47 926 21 924 l 0 910 l 7 910 b 64 760 26 910 64 903 l 64 -118 b 3 -264 64 -262 38 -264 l 0 -264 l 0 -278 l 213 -278 l 213 -264 l 210 -264 b 149 -118 175 -264 149 -262 l 149 26 l 239 122 l 433 -128 b 503 -249 486 -196 503 -231 b 485 -264 503 -261 494 -264 l 485 -278 l 699 -278 l 699 -264 b 531 -115 665 -264 622 -237 z "},"l":{"ha":282,"x_min":0,"x_max":0,"o":"m 213 -264 l 210 -264 b 149 -118 175 -264 149 -262 l 149 965 b 78 936 131 956 107 944 b 0 924 47 928 21 924 l 0 910 l 7 910 b 64 760 26 910 64 903 l 64 -118 b 3 -264 64 -262 38 -264 l 0 -264 l 0 -278 l 213 -278 z "},"m":{"ha":1161,"x_min":0,"x_max":0,"o":"m 1089 -260 b 1026 -112 1054 -260 1026 -260 l 1026 297 b 821 513 1026 443 926 513 b 586 321 686 513 617 396 b 382 513 576 450 481 513 b 149 325 247 513 179 399 l 149 507 b 79 478 132 497 108 486 b 0 464 49 468 21 465 l 0 450 l 7 450 b 65 301 28 450 65 443 l 65 -112 b 3 -260 65 -260 38 -260 l 0 -260 l 0 -274 l 214 -274 l 214 -260 l 211 -260 b 149 -112 176 -260 149 -260 l 149 292 b 360 496 181 390 253 496 b 503 331 464 496 503 415 l 503 -112 b 442 -260 503 -260 475 -260 l 439 -260 l 439 -274 l 653 -274 l 653 -260 l 650 -260 b 588 -112 615 -260 588 -260 l 588 292 b 799 496 619 389 690 496 b 942 331 903 496 942 415 l 942 -112 b 879 -260 942 -260 914 -260 l 878 -260 l 878 -274 l 1092 -274 l 1092 -260 z "},"n":{"ha":792,"x_min":0,"x_max":0,"o":"m 718 -264 b 657 -118 683 -264 657 -262 l 657 251 b 403 508 657 422 546 508 b 149 356 307 508 207 450 l 149 501 b 78 472 131 492 107 481 b 0 460 47 464 21 460 l 0 446 l 7 446 b 64 296 26 446 64 439 l 64 -118 b 3 -264 64 -262 38 -264 l 0 -264 l 0 -279 l 214 -279 l 214 -264 l 210 -264 b 149 -118 175 -264 149 -262 l 149 324 b 397 494 194 425 306 494 b 574 264 542 494 574 397 l 574 -118 b 513 -264 574 -262 547 -264 l 508 -264 l 508 -279 l 722 -279 l 722 -264 z "},"o":{"ha":708,"x_min":0,"x_max":0,"o":"m 319 517 b 0 119 106 517 0 335 b 319 -278 0 -96 106 -278 b 639 119 533 -278 639 -96 b 319 517 639 335 533 517 z m 319 -262 b 86 119 153 -262 86 -87 b 319 503 86 328 153 503 b 553 119 485 503 553 328 b 319 -262 553 -87 485 -262 z "},"p":{"ha":750,"x_min":0,"x_max":0,"o":"m 425 517 b 150 249 250 517 172 358 l 150 501 b 79 472 132 492 108 481 b 0 460 49 464 21 461 l 0 446 l 7 446 b 65 296 28 446 65 439 l 65 -582 b 3 -728 65 -728 38 -728 l 0 -728 l 0 -742 l 214 -742 l 214 -728 l 211 -728 b 150 -582 178 -728 150 -728 l 150 -185 b 363 -279 203 -243 279 -279 b 681 171 528 -279 681 -119 b 425 517 681 415 560 517 z m 360 -265 b 150 -86 257 -265 179 -193 l 150 190 b 386 485 168 343 253 485 b 594 142 532 485 594 331 b 360 -265 594 -122 483 -265 z "},"q":{"ha":750,"x_min":0,"x_max":0,"o":"m 678 -728 b 615 -582 643 -728 615 -728 l 615 515 l 601 515 l 575 379 b 325 517 500 483 408 517 b 0 63 153 517 0 354 b 256 -279 0 -174 122 -279 b 532 -11 432 -279 508 -119 l 532 -582 b 469 -728 532 -728 504 -728 l 467 -728 l 467 -742 l 681 -742 l 681 -728 z m 532 47 b 294 -247 513 -106 428 -247 b 86 96 149 -247 86 -93 b 321 503 86 360 197 503 b 532 324 424 503 501 431 z "},"r":{"ha":599,"x_min":0,"x_max":0,"o":"m 529 331 l 519 475 b 401 508 481 497 446 508 b 149 261 275 508 196 397 l 149 501 b 78 472 131 492 107 481 b 0 460 47 464 21 460 l 0 446 l 7 446 b 64 296 26 446 64 439 l 64 -118 b 3 -264 64 -262 38 -264 l 0 -264 l 0 -279 l 213 -279 l 213 -264 l 210 -264 b 149 -118 175 -264 149 -262 l 149 228 b 361 469 193 389 281 469 b 513 326 433 469 485 392 b 529 331 522 328 519 328 z "},"s":{"ha":600,"x_min":0,"x_max":0,"o":"m 82 343 b 240 499 82 485 219 499 b 483 268 350 499 433 435 b 496 271 490 269 489 269 l 486 425 b 242 513 428 478 339 513 b 10 319 124 513 10 447 b 447 -103 10 58 447 140 b 272 -268 447 -258 310 -268 l 263 -268 b 13 -31 128 -268 60 -176 l 7 -31 b 0 -32 6 -31 4 -31 l 11 -193 b 268 -282 51 -229 165 -282 b 531 -71 403 -282 531 -211 b 82 343 531 175 82 133 z "},"t":{"ha":431,"x_min":0,"x_max":0,"o":"m 192 488 l 361 488 l 361 501 l 192 501 l 192 786 l 176 786 b 0 501 176 786 172 501 l 0 488 l 107 488 l 107 -176 b 196 -279 107 -276 188 -279 b 361 -144 299 -279 354 -169 b 354 -140 358 -143 354 -140 b 232 -254 354 -140 314 -254 b 192 -210 214 -254 192 -244 z "},"u":{"ha":793,"x_min":0,"x_max":0,"o":"m 658 503 b 589 471 642 493 619 481 b 510 461 557 463 529 461 l 510 447 l 513 447 b 574 300 546 447 574 447 l 574 -99 b 325 -271 528 -200 417 -271 b 150 -39 181 -271 150 -172 l 150 503 b 79 472 133 493 110 481 b 0 461 47 463 21 461 l 0 447 l 3 447 b 65 300 38 447 65 447 l 65 -26 b 139 -219 65 -112 93 -176 b 321 -283 185 -262 249 -283 b 574 -131 417 -283 515 -225 l 574 -276 b 644 -247 592 -267 615 -256 b 724 -235 675 -239 701 -236 l 724 -221 l 717 -221 b 658 -72 696 -221 658 -214 z "},"v":{"ha":764,"x_min":0,"x_max":0,"o":"m 694 501 l 551 501 l 551 488 b 597 439 576 488 597 478 b 582 365 597 421 593 397 l 386 -167 l 188 371 b 169 447 175 406 169 431 b 213 488 169 482 190 488 l 213 501 l 0 501 l 0 488 b 101 360 32 488 57 476 l 338 -279 l 360 -279 l 600 374 b 694 488 631 468 663 488 z "},"w":{"ha":1167,"x_min":0,"x_max":0,"o":"m 954 501 l 954 488 b 1000 439 979 488 1000 478 b 985 365 1000 422 996 397 l 789 -167 l 594 358 l 588 379 b 572 447 576 410 572 431 b 583 479 572 463 576 474 b 614 488 592 486 603 488 l 615 488 l 615 501 l 401 501 l 401 488 b 449 467 418 488 433 485 b 504 360 464 450 482 418 l 542 257 l 388 -167 l 188 371 b 169 446 175 406 169 429 b 214 488 169 482 192 488 l 214 501 l 0 501 l 0 488 b 47 467 17 488 31 485 b 103 360 63 450 79 418 l 339 -279 l 361 -279 l 550 236 l 740 -279 l 763 -279 l 1003 374 b 1097 488 1033 468 1065 488 l 1097 501 z "},"x":{"ha":754,"x_min":0,"x_max":0,"o":"m 375 165 l 538 397 b 654 486 585 465 621 486 l 654 500 l 511 500 l 511 486 b 543 456 529 486 543 476 b 518 393 543 440 536 419 l 367 178 l 242 390 b 218 458 225 421 218 443 b 244 486 218 478 229 486 l 244 500 l 31 500 l 31 486 b 167 351 65 486 101 453 l 314 103 l 114 -183 b 0 -267 68 -247 35 -267 l 0 -281 l 143 -281 l 143 -267 b 108 -237 125 -267 108 -258 b 135 -178 108 -224 117 -204 l 322 89 l 474 -165 b 500 -236 492 -197 500 -219 b 471 -267 500 -258 486 -267 l 471 -281 l 685 -281 l 685 -267 b 567 -158 651 -267 608 -228 z "},"y":{"ha":765,"x_min":0,"x_max":0,"o":"m 553 501 l 553 488 b 599 439 578 488 599 478 b 583 365 599 421 594 397 l 390 -157 l 188 371 b 169 446 175 406 169 429 b 214 488 169 482 192 488 l 214 501 l 0 501 l 0 488 b 103 360 33 488 57 476 l 349 -279 b 201 -603 349 -279 276 -483 b 168 -628 190 -619 179 -628 b 46 -450 110 -628 46 -450 l 26 -456 b 93 -743 26 -456 58 -592 b 361 -279 197 -743 331 -365 l 600 374 b 696 488 632 468 664 488 l 696 501 z "},"z":{"ha":663,"x_min":0,"x_max":0,"o":"m 593 501 l 42 501 l 28 328 l 42 326 b 278 488 49 418 69 488 l 485 488 l 0 -279 l 565 -279 l 579 -104 l 565 -104 b 328 -264 557 -194 536 -264 l 110 -264 z "},"{":{"ha":314,"x_min":0,"x_max":0,"o":"m 181 869 b 244 933 181 906 210 933 l 244 949 b 96 799 163 949 96 882 l 96 468 b 0 315 96 392 75 326 b 96 161 75 304 96 239 l 96 -169 b 244 -318 96 -251 163 -318 l 244 -304 b 181 -239 210 -304 181 -275 l 181 156 b 47 315 181 236 128 304 b 181 475 128 325 181 394 z "},"|":{"ha":85,"x_min":0,"x_max":0,"o":"m 15 -278 l 15 911 l 0 911 l 0 -278 z "},"}":{"ha":314,"x_min":0,"x_max":0,"o":"m 64 475 b 197 315 64 394 117 325 b 64 156 117 304 64 236 l 64 -239 b 0 -304 64 -275 35 -304 l 0 -318 b 149 -169 82 -318 149 -251 l 149 161 b 244 315 149 239 169 304 b 149 468 169 326 149 392 l 149 799 b 0 949 149 882 82 949 l 0 933 b 64 869 35 933 64 906 z "},"~":{"ha":317,"x_min":0,"x_max":0,"o":"m 224 99 b 197 92 215 94 207 92 l 190 92 b 126 115 168 92 147 103 b 93 133 115 121 106 128 b 61 140 83 138 72 140 l 54 140 b 19 124 42 140 28 132 b 0 92 11 114 4 103 b 53 129 13 111 32 129 l 56 129 b 119 103 78 129 99 117 b 153 86 129 97 140 90 b 185 81 163 83 174 81 l 192 81 b 228 93 204 81 218 85 b 247 125 238 101 244 113 b 224 99 242 114 233 104 z "},"¡":{"ha":193,"x_min":0,"x_max":0,"o":"m 60 -118 l 0 -1032 l 124 -1032 l 74 -118 z m 67 54 b 118 106 100 54 118 76 b 67 157 118 133 103 157 b 17 106 33 157 17 133 b 67 54 17 76 33 54 z "},"¢":{"ha":936,"x_min":0,"x_max":0,"o":"m 857 -35 b 517 -235 779 -168 643 -235 b 471 -232 501 -235 486 -235 l 471 903 l 489 903 b 799 611 647 894 771 788 l 813 525 l 826 526 l 775 879 l 761 876 l 761 868 b 742 843 761 850 753 843 b 719 850 735 843 726 846 b 471 917 642 892 560 917 l 471 1076 l 457 1076 l 457 917 b 0 317 168 908 0 639 b 457 -283 0 -6 157 -274 l 457 -444 l 471 -444 l 471 -285 l 475 -285 b 867 -42 628 -285 779 -207 z m 89 340 b 457 903 89 628 217 893 l 457 -231 b 89 340 240 -196 89 28 z "},"£":{"ha":1038,"x_min":0,"x_max":0,"o":"m 954 82 b 707 -264 943 -37 903 -264 l 422 -264 b 360 -117 388 -264 360 -264 l 360 310 l 847 310 l 847 324 l 360 324 l 360 710 b 497 899 360 793 383 899 b 699 624 628 899 690 764 l 713 625 l 697 886 l 682 885 l 682 878 b 668 858 682 865 676 858 b 649 867 663 858 656 861 b 494 910 615 893 561 910 b 276 650 414 910 276 861 l 276 324 l 0 324 l 0 310 l 276 310 l 276 -117 b 214 -264 276 -264 249 -264 l 211 -264 l 211 -278 l 929 -278 l 968 81 z "},"¤":{"ha":528,"x_min":0,"x_max":0,"o":"m 458 111 b 396 268 458 172 435 226 l 451 324 l 442 333 l 386 278 b 229 340 346 317 290 340 b 72 278 168 340 114 317 l 17 333 l 7 324 l 63 268 b 0 111 24 226 0 172 b 63 -46 0 50 24 -6 l 7 -101 l 17 -111 l 72 -56 b 229 -118 114 -94 168 -118 b 386 -56 290 -118 346 -94 l 442 -111 l 451 -101 l 396 -46 b 458 111 435 -6 458 50 z m 376 -46 b 229 -104 338 -82 286 -104 b 82 -46 172 -104 121 -82 b 72 -36 79 -43 75 -40 b 14 111 36 3 14 54 b 72 258 14 168 36 219 l 82 268 b 229 326 121 304 172 326 b 376 268 286 326 338 304 b 386 258 381 265 383 261 b 444 111 422 219 444 168 b 386 -36 444 54 422 3 b 376 -46 383 -40 381 -43 z "},"¥":{"ha":938,"x_min":0,"x_max":0,"o":"m 474 265 l 764 810 b 868 896 796 874 832 896 l 868 910 l 724 910 l 724 896 b 763 857 744 896 763 883 b 749 810 763 844 758 829 l 467 281 l 201 789 b 182 857 188 818 182 840 b 214 896 182 883 196 896 l 214 910 l 0 910 l 0 896 b 108 786 32 896 68 867 l 389 247 l 11 247 l 11 232 l 390 232 l 390 -12 l 11 -12 l 11 -26 l 390 -26 l 390 -117 b 328 -264 390 -264 363 -264 l 325 -264 l 325 -278 l 539 -278 l 539 -264 l 536 -264 b 474 -117 501 -264 474 -264 l 474 -26 l 857 -26 l 857 -12 l 474 -12 l 474 232 l 857 232 l 857 247 l 474 247 z "},"¦":{"ha":83,"x_min":0,"x_max":0,"o":"m 14 911 l 0 911 l 0 464 l 14 464 z m 0 169 l 0 -278 l 14 -278 l 14 169 z "},"§":{"ha":567,"x_min":0,"x_max":0,"o":"m 381 122 b 497 304 453 161 497 232 b 458 424 497 354 483 393 b 283 544 418 478 351 513 b 75 749 179 594 75 639 b 233 908 75 904 224 908 b 467 651 358 908 438 832 l 476 653 l 451 861 l 442 860 l 442 857 b 433 843 442 847 439 843 b 421 850 431 843 425 846 b 235 918 376 892 308 918 b 19 735 100 918 19 832 b 157 538 19 635 81 579 b 19 364 69 511 19 442 b 288 106 19 211 165 164 l 304 97 b 449 -83 383 57 449 8 b 261 -267 449 -265 268 -267 b 10 -7 144 -267 36 -196 l 0 -8 l 26 -215 l 36 -215 l 36 -208 b 43 -194 36 -199 39 -194 b 60 -203 47 -194 53 -197 b 261 -276 113 -250 189 -276 b 497 -65 400 -276 497 -172 b 381 122 497 26 447 81 z m 75 379 b 175 528 75 474 131 513 b 449 286 299 464 449 425 b 367 131 449 201 410 156 b 75 379 243 204 75 240 z "},"¨":{"ha":260,"x_min":0,"x_max":0,"o":"m 39 1151 b 0 1113 18 1151 0 1133 b 39 1072 0 1090 18 1072 b 79 1113 61 1072 79 1090 b 39 1151 79 1133 61 1151 z m 150 1151 b 111 1113 129 1151 111 1133 b 150 1072 111 1090 129 1072 b 190 1113 172 1072 190 1090 b 150 1151 190 1133 172 1151 z "},"©":{"ha":1257,"x_min":0,"x_max":0,"o":"m 629 -26 b 363 332 475 -26 363 119 b 600 682 363 514 446 682 b 611 681 604 682 608 682 b 804 500 711 676 786 610 l 813 446 l 822 447 l 789 667 l 781 665 l 781 660 b 769 644 781 649 776 644 b 756 649 765 644 760 646 b 600 690 707 674 656 690 b 307 317 415 690 307 521 b 603 -57 307 113 410 -57 b 846 94 699 -57 793 -8 l 840 99 b 629 -26 793 15 707 -26 z m 593 911 b 0 317 267 911 0 644 b 593 -278 0 -11 267 -278 b 1188 317 921 -278 1188 -11 b 593 911 1188 644 921 911 z m 593 -264 b 14 317 274 -264 14 -3 b 593 896 14 636 274 896 b 1174 317 913 896 1174 636 b 593 -264 1174 -3 913 -264 z "},"ª":{"ha":329,"x_min":0,"x_max":0,"o":"m 257 675 b 232 639 257 675 250 639 b 221 653 225 639 221 642 l 221 864 b 118 910 179 904 147 910 b 0 750 60 910 0 854 b 92 626 0 663 44 626 b 190 722 154 626 182 683 l 190 658 b 217 626 190 629 211 626 b 260 674 250 626 257 667 z m 106 638 b 31 760 54 638 31 693 b 119 906 31 854 75 906 b 190 850 157 906 182 882 l 190 743 b 106 638 183 688 153 638 z "},"«":{"ha":443,"x_min":0,"x_max":0,"o":"m 232 324 l 222 335 l 0 111 l 222 -111 l 232 -100 l 33 111 z m 374 324 l 364 335 l 142 111 l 364 -111 l 374 -100 l 176 111 z "},"¬":{"ha":685,"x_min":0,"x_max":0,"o":"m 615 228 l 0 228 l 0 214 l 600 214 l 600 -1 l 615 -1 z "},"®":{"ha":1258,"x_min":0,"x_max":0,"o":"m 878 -14 l 872 -7 b 831 -28 872 -7 856 -28 b 557 265 740 -28 692 210 b 844 500 663 272 844 329 b 640 686 844 610 753 686 l 356 686 l 356 676 b 396 585 378 676 396 676 l 396 47 b 357 -44 396 -44 378 -44 l 356 -44 l 356 -53 l 489 -53 l 489 -44 l 486 -44 b 449 47 465 -44 449 -44 l 449 585 b 489 676 449 676 467 676 l 597 676 b 788 503 728 676 788 592 b 560 272 788 358 663 299 b 531 265 550 269 540 268 b 519 264 528 265 524 264 b 644 108 569 264 619 171 b 797 -53 679 26 719 -53 b 878 -14 857 -53 878 -14 z m 594 -278 b 1189 317 922 -278 1189 -11 b 594 911 1189 644 922 911 b 0 317 267 911 0 644 b 594 -278 0 -11 267 -278 z m 594 896 b 1174 317 914 896 1174 636 b 594 -264 1174 -3 914 -264 b 14 317 275 -264 14 -3 b 594 896 14 636 275 896 z "},"¯":{"ha":275,"x_min":0,"x_max":0,"o":"m 206 1121 l 0 1121 l 0 1106 l 206 1106 z "},"°":{"ha":222,"x_min":0,"x_max":0,"o":"m 76 1035 b 153 1111 119 1035 153 1069 b 76 1189 153 1154 119 1189 b 0 1111 33 1189 0 1154 b 76 1035 0 1069 33 1035 z m 76 1174 b 139 1111 111 1174 139 1146 b 76 1049 139 1076 111 1049 b 14 1111 42 1049 14 1076 b 76 1174 14 1146 42 1174 z "},"±":{"ha":683,"x_min":0,"x_max":0,"o":"m 614 182 l 614 196 l 314 196 l 314 496 l 300 496 l 300 196 l 0 196 l 0 182 l 300 182 l 300 -118 l 314 -118 l 314 182 z m 614 -272 l 614 -258 l 0 -258 l 0 -272 z "},"²":{"ha":226,"x_min":0,"x_max":0,"o":"m 157 672 l 154 674 b 124 646 153 667 147 646 l 8 646 b 154 839 26 725 154 750 b 79 910 154 882 124 910 b 17 885 63 910 40 906 b 13 883 15 883 14 883 b 10 889 11 883 10 885 l 7 889 l 6 817 l 8 817 b 78 906 10 872 39 906 b 132 836 117 906 132 874 b 0 625 132 749 0 719 l 151 625 z "},"³":{"ha":225,"x_min":0,"x_max":0,"o":"m 156 717 b 94 804 156 760 135 796 b 139 857 124 810 139 832 b 71 910 139 886 115 910 b 24 896 56 910 35 904 b 19 894 22 894 21 894 b 14 901 17 894 14 897 l 11 901 l 11 831 l 14 831 b 71 907 17 875 38 907 b 118 857 104 907 118 883 b 78 807 118 831 107 807 l 75 807 l 75 803 b 136 717 118 803 136 764 b 72 629 136 668 114 629 b 3 718 33 629 6 667 l 0 718 l 1 647 l 4 647 b 7 651 4 650 6 651 b 11 649 8 651 10 650 b 72 626 25 635 51 626 b 156 717 128 626 156 667 z "},"´":{"ha":244,"x_min":0,"x_max":0,"o":"m 136 1174 l 0 1053 l 13 1053 l 175 1174 z "},"µ":{"ha":793,"x_min":0,"x_max":0,"o":"m 65 300 l 64 -299 b 56 -403 64 -347 61 -382 b 33 -439 50 -424 43 -435 b 1 -444 24 -443 14 -444 l 0 -444 l 0 -460 l 213 -460 l 213 -444 l 211 -444 b 179 -439 199 -444 189 -443 b 157 -403 169 -435 163 -424 b 149 -299 151 -382 149 -347 l 149 -228 b 321 -283 196 -265 253 -283 b 461 -243 368 -283 415 -269 b 574 -131 507 -217 544 -179 l 574 -276 b 644 -247 592 -267 615 -257 b 724 -235 675 -239 701 -235 l 724 -221 l 714 -221 b 703 -219 711 -221 707 -221 b 682 -203 696 -218 689 -212 b 665 -158 675 -194 669 -179 b 658 -72 661 -137 658 -110 l 658 503 b 589 471 643 492 619 481 b 521 461 561 464 539 461 l 510 461 l 510 447 l 513 447 b 543 442 524 447 533 446 b 565 404 553 438 560 425 b 574 300 571 383 574 349 l 574 -99 b 465 -224 549 -150 513 -192 b 325 -271 418 -256 371 -271 b 215 -240 276 -271 240 -261 b 164 -158 190 -221 174 -193 b 150 -39 154 -124 150 -83 l 150 503 b 79 472 133 492 110 482 b 7 461 50 465 26 461 l 0 461 l 0 447 l 3 447 b 35 442 15 447 25 446 b 57 404 44 438 51 425 b 65 300 63 383 65 349 z "},"¶":{"ha":651,"x_min":0,"x_max":0,"o":"m 582 911 l 240 911 b 0 669 108 911 0 803 b 240 429 0 536 108 429 l 407 429 l 407 -278 l 421 -278 l 421 896 l 472 896 l 472 -278 l 486 -278 l 486 896 l 582 896 z "},"·":{"ha":417,"x_min":0,"x_max":0,"o":"m 43 515 b 0 472 15 515 0 496 b 43 429 0 449 14 429 b 86 472 71 429 86 449 b 43 515 86 496 72 515 z "},"∙":{"ha":417,"x_min":0,"x_max":0,"o":"m 43 515 b 0 472 15 515 0 496 b 43 429 0 449 14 429 b 86 472 71 429 86 449 b 43 515 86 496 72 515 z "},"¸":{"ha":200,"x_min":0,"x_max":0,"o":"m 131 -74 b 65 -25 131 -47 101 -28 l 94 7 l 68 7 l 44 -35 l 50 -35 b 65 -36 56 -35 60 -35 b 110 -74 96 -40 110 -58 b 49 -115 110 -99 86 -115 b 4 -106 21 -115 8 -107 l 0 -114 b 10 -118 3 -115 6 -117 b 50 -125 21 -122 35 -125 b 131 -74 96 -125 131 -103 z "},"¹":{"ha":121,"x_min":0,"x_max":0,"o":"m 51 629 l 50 629 b 35 664 42 629 35 629 l 35 910 b 18 904 31 908 25 906 l 0 904 l 0 900 b 15 864 4 900 15 899 l 15 664 b 0 629 15 629 8 629 l 0 626 l 51 626 z "},"º":{"ha":231,"x_min":0,"x_max":0,"o":"m 81 910 b 0 768 26 910 0 847 b 81 626 0 690 26 626 b 161 768 135 626 161 690 b 81 910 161 847 135 910 z m 81 629 b 19 768 38 629 19 692 b 81 907 19 844 38 907 b 142 768 124 907 142 844 b 81 629 142 692 124 629 z "},"»":{"ha":443,"x_min":0,"x_max":0,"o":"m 142 324 l 340 111 l 142 -100 l 151 -111 l 374 111 l 151 335 z m 0 324 l 197 111 l 0 -100 l 10 -111 l 232 111 l 10 335 z "},"¼":{"ha":1124,"x_min":0,"x_max":0,"o":"m 997 910 l 0 -278 l 19 -278 l 1015 910 z m 225 224 l 224 224 b 188 310 204 224 188 224 l 188 910 b 144 897 176 906 163 900 b 110 894 131 896 121 894 l 100 894 l 100 886 b 138 799 111 886 138 882 l 138 310 b 101 224 138 224 122 224 l 100 224 l 100 215 l 225 215 z m 1049 -108 l 1054 -50 l 1046 -49 b 1022 -71 1044 -61 1043 -71 l 997 -71 l 997 418 l 982 418 l 660 -108 l 947 -108 l 947 -183 b 911 -269 947 -269 931 -269 l 910 -269 l 910 -278 l 1035 -278 l 1035 -269 l 1033 -269 b 997 -183 1013 -269 997 -269 l 997 -108 z m 947 -71 l 693 -71 l 947 346 z "},"½":{"ha":1164,"x_min":0,"x_max":0,"o":"m 996 910 l 0 -278 l 18 -278 l 1014 910 z m 224 224 l 222 224 b 186 310 203 224 186 224 l 186 910 b 143 897 175 906 161 900 b 110 894 131 896 119 894 l 99 894 l 99 886 b 138 799 110 886 138 882 l 138 310 b 100 224 138 224 121 224 l 99 224 l 99 215 l 224 215 z m 1086 -161 b 1013 -228 1085 -178 1071 -228 l 731 -228 b 1089 243 778 -35 1089 28 b 903 418 1089 351 1014 418 b 751 357 863 418 811 408 b 743 353 749 354 746 353 b 736 367 739 353 736 358 l 728 367 l 724 192 l 732 192 b 900 410 736 328 806 410 b 1035 238 996 410 1035 329 b 713 -278 1035 25 713 -47 l 1082 -278 l 1094 -161 z "},"¾":{"ha":1099,"x_min":0,"x_max":0,"o":"m 26 272 b 176 215 61 238 125 215 b 382 436 313 215 382 314 b 231 651 382 542 331 632 b 339 779 303 664 339 718 b 174 910 339 851 283 910 b 60 876 135 910 86 896 b 50 874 57 874 53 874 b 35 889 42 874 35 881 l 26 889 l 26 715 l 35 715 b 172 901 42 824 93 901 b 290 779 254 901 290 844 b 188 656 290 713 263 656 l 185 656 l 185 647 b 332 436 289 647 332 553 b 176 224 332 318 281 224 b 8 440 82 224 14 314 l 0 440 l 3 265 l 11 267 b 17 278 11 274 14 278 b 26 272 19 278 22 276 z m 1011 910 l 14 -278 l 32 -278 l 1029 910 z m 956 -71 l 956 418 l 940 418 l 618 -108 l 906 -108 l 906 -183 b 869 -269 906 -269 890 -269 l 868 -269 l 868 -278 l 993 -278 l 993 -269 l 992 -269 b 956 -183 972 -269 956 -269 l 956 -108 l 1008 -108 l 1013 -50 l 1004 -49 b 981 -71 1003 -61 1001 -71 z m 906 -71 l 651 -71 l 906 346 z "},"¿":{"ha":693,"x_min":0,"x_max":0,"o":"m 317 -1032 b 575 -928 386 -1032 475 -1015 b 590 -921 581 -924 586 -921 b 603 -944 599 -921 603 -931 l 618 -944 l 624 -646 l 610 -646 b 322 -1017 601 -878 483 -1017 b 92 -739 158 -1017 92 -896 b 379 -118 92 -478 379 -361 l 365 -118 b 0 -750 354 -376 0 -417 b 317 -1032 0 -918 129 -1032 z m 368 54 b 419 106 401 54 419 76 b 368 157 419 133 403 157 b 317 106 335 157 317 133 b 368 54 317 76 335 54 z "},"À":{"ha":949,"x_min":0,"x_max":0,"o":"m 493 90 l 488 90 b 449 96 478 90 464 92 b 401 118 433 99 417 106 b 357 94 386 106 372 97 b 321 90 342 92 331 90 l 315 90 b 311 89 314 89 313 89 l 190 85 l 419 782 l 629 83 z m 190 85 l 311 76 l 318 76 b 356 71 328 76 340 75 b 401 47 371 67 386 60 b 450 71 418 60 435 67 b 486 76 465 75 476 76 l 493 76 l 629 83 l 690 -124 b 707 -208 701 -158 707 -187 b 694 -251 707 -229 703 -243 b 665 -264 686 -260 676 -264 l 665 -278 l 879 -278 l 879 -264 b 826 -228 861 -264 844 -251 b 781 -128 808 -204 793 -171 l 471 910 l 447 910 l 92 -168 b 50 -243 79 -204 65 -229 b 0 -264 35 -257 18 -264 l 0 -278 l 143 -278 l 143 -264 b 113 -253 131 -264 121 -260 b 100 -215 104 -246 100 -233 b 110 -161 100 -200 103 -182 z m 400 1119 l 361 1119 l 524 999 l 536 999 z "},"Á":{"ha":949,"x_min":0,"x_max":0,"o":"m 493 90 l 488 90 b 449 96 478 90 464 92 b 401 118 433 99 417 106 b 357 94 386 106 372 97 b 321 90 342 92 331 90 l 315 90 b 311 89 314 89 313 89 l 190 85 l 419 782 l 629 83 z m 190 85 l 311 76 l 318 76 b 356 71 328 76 340 75 b 401 47 371 67 386 60 b 450 71 418 60 435 67 b 486 76 465 75 476 76 l 493 76 l 629 83 l 690 -124 b 707 -208 701 -158 707 -187 b 694 -251 707 -229 703 -243 b 665 -264 686 -260 676 -264 l 665 -278 l 879 -278 l 879 -264 b 826 -228 861 -264 844 -251 b 781 -128 808 -204 793 -171 l 471 910 l 447 910 l 92 -168 b 50 -243 79 -204 65 -229 b 0 -264 35 -257 18 -264 l 0 -278 l 143 -278 l 143 -264 b 113 -253 131 -264 121 -260 b 100 -215 104 -246 100 -233 b 110 -161 100 -200 103 -182 z m 506 1122 l 369 1001 l 382 1001 l 544 1122 z "},"Â":{"ha":949,"x_min":0,"x_max":0,"o":"m 493 90 l 488 90 b 449 96 478 90 464 92 b 401 118 433 99 417 106 b 357 94 386 106 372 97 b 321 90 342 92 331 90 l 315 90 b 311 89 314 89 313 89 l 190 85 l 419 782 l 629 83 z m 190 85 l 311 76 l 318 76 b 356 71 328 76 340 75 b 401 47 371 67 386 60 b 450 71 418 60 435 67 b 486 76 465 75 476 76 l 493 76 l 629 83 l 690 -124 b 707 -208 701 -158 707 -187 b 694 -251 707 -229 703 -243 b 665 -264 686 -260 676 -264 l 665 -278 l 879 -278 l 879 -264 b 826 -228 861 -264 844 -251 b 781 -128 808 -204 793 -171 l 471 910 l 447 910 l 92 -168 b 50 -243 79 -204 65 -229 b 0 -264 35 -257 18 -264 l 0 -278 l 143 -278 l 143 -264 b 113 -253 131 -264 121 -260 b 100 -215 104 -246 100 -233 b 110 -161 100 -200 103 -182 z m 458 1086 l 443 1100 l 426 1086 l 314 988 l 325 988 l 443 1075 l 560 988 l 571 988 z "},"Ã":{"ha":949,"x_min":0,"x_max":0,"o":"m 493 90 l 488 90 b 449 96 478 90 464 92 b 401 118 433 99 417 106 b 357 94 386 106 372 97 b 321 90 342 92 331 90 l 315 90 b 311 89 314 89 313 89 l 190 85 l 419 782 l 629 83 z m 190 85 l 311 76 l 318 76 b 356 71 328 76 340 75 b 401 47 371 67 386 60 b 450 71 418 60 435 67 b 486 76 465 75 476 76 l 493 76 l 629 83 l 690 -124 b 707 -208 701 -158 707 -187 b 694 -251 707 -229 703 -243 b 665 -264 686 -260 676 -264 l 665 -278 l 879 -278 l 879 -264 b 826 -228 861 -264 844 -251 b 781 -128 808 -204 793 -171 l 471 910 l 447 910 l 92 -168 b 50 -243 79 -204 65 -229 b 0 -264 35 -257 18 -264 l 0 -278 l 143 -278 l 143 -264 b 113 -253 131 -264 121 -260 b 100 -215 104 -246 100 -233 b 110 -161 100 -200 103 -182 z m 553 1019 b 526 1013 544 1015 536 1013 l 519 1013 b 456 1036 497 1013 476 1024 b 422 1054 444 1042 435 1049 b 390 1061 413 1058 401 1061 l 383 1061 b 349 1044 371 1061 357 1053 b 329 1013 340 1035 333 1024 b 382 1050 342 1032 361 1050 l 385 1050 b 449 1024 407 1050 428 1038 b 482 1007 458 1018 469 1011 b 514 1001 492 1004 503 1001 l 521 1001 b 557 1014 533 1001 547 1006 b 576 1046 567 1022 574 1033 b 553 1019 571 1035 563 1025 z "},"Ä":{"ha":949,"x_min":0,"x_max":0,"o":"m 493 90 l 488 90 b 449 96 478 90 464 92 b 401 118 433 99 417 106 b 357 94 386 106 372 97 b 321 90 342 92 331 90 l 315 90 b 311 89 314 89 313 89 l 190 85 l 419 782 l 629 83 z m 190 85 l 311 76 l 318 76 b 356 71 328 76 340 75 b 401 47 371 67 386 60 b 450 71 418 60 435 67 b 486 76 465 75 476 76 l 493 76 l 629 83 l 690 -124 b 707 -208 701 -158 707 -187 b 694 -251 707 -229 703 -243 b 665 -264 686 -260 676 -264 l 665 -278 l 879 -278 l 879 -264 b 826 -228 861 -264 844 -251 b 781 -128 808 -204 793 -171 l 471 910 l 447 910 l 92 -168 b 50 -243 79 -204 65 -229 b 0 -264 35 -257 18 -264 l 0 -278 l 143 -278 l 143 -264 b 113 -253 131 -264 121 -260 b 100 -215 104 -246 100 -233 b 110 -161 100 -200 103 -182 z m 400 1074 b 361 1035 379 1074 361 1056 b 400 994 361 1013 379 994 b 440 1035 422 994 440 1013 b 400 1074 440 1056 422 1074 z m 511 1074 b 472 1035 490 1074 472 1056 b 511 994 472 1013 490 994 b 551 1035 533 994 551 1013 b 511 1074 551 1056 533 1074 z "},"Å":{"ha":949,"x_min":0,"x_max":0,"o":"m 493 90 l 488 90 b 449 96 478 90 464 92 b 401 118 433 99 417 106 b 357 94 386 106 372 97 b 321 90 342 92 331 90 l 315 90 b 311 89 314 89 313 89 l 190 85 l 419 782 l 629 83 z m 190 85 l 311 76 l 318 76 b 356 71 328 76 340 75 b 401 47 371 67 386 60 b 450 71 418 60 435 67 b 486 76 465 75 476 76 l 493 76 l 629 83 l 690 -124 b 707 -208 701 -158 707 -187 b 694 -251 707 -229 703 -243 b 665 -264 686 -260 676 -264 l 665 -278 l 879 -278 l 879 -264 b 826 -228 861 -264 844 -251 b 781 -128 808 -204 793 -171 l 471 910 l 447 910 l 92 -168 b 50 -243 79 -204 65 -229 b 0 -264 35 -257 18 -264 l 0 -278 l 143 -278 l 143 -264 b 113 -253 131 -264 121 -260 b 100 -215 104 -246 100 -233 b 110 -161 100 -200 103 -182 z m 456 986 b 532 1063 499 986 532 1021 b 456 1140 532 1106 499 1140 b 379 1063 413 1140 379 1106 b 456 986 379 1021 413 986 z m 456 1125 b 518 1063 490 1125 518 1097 b 456 1000 518 1028 490 1000 b 393 1063 421 1000 393 1028 b 456 1125 393 1097 421 1125 z "},"Æ":{"ha":1519,"x_min":0,"x_max":0,"o":"m 493 90 l 488 90 b 449 96 478 90 464 92 b 401 118 433 99 417 106 b 357 94 386 106 372 97 b 321 90 342 92 331 90 l 315 90 b 311 89 314 89 313 89 l 190 85 l 419 782 l 629 83 z m 629 83 l 690 -124 b 707 -207 701 -158 707 -186 b 703 -233 707 -218 706 -226 b 665 -264 694 -254 682 -264 l 665 -278 l 1413 -278 l 1450 79 l 1436 81 b 1421 -22 1433 50 1428 15 b 1382 -135 1413 -61 1400 -99 b 1310 -226 1364 -172 1340 -203 b 1189 -264 1278 -251 1238 -264 l 879 -264 b 826 -228 861 -264 844 -251 b 824 -224 825 -226 825 -225 b 822 -221 822 -222 822 -222 b 814 -117 817 -200 814 -165 l 814 747 b 824 853 814 796 817 832 b 847 890 829 874 838 886 b 879 896 857 894 867 896 l 1147 896 b 1289 856 1208 896 1256 882 b 1358 754 1321 828 1344 794 b 1383 632 1372 714 1381 672 l 1397 633 l 1369 910 l 665 910 l 665 896 b 699 890 678 896 689 894 b 722 853 708 886 715 874 b 731 747 728 832 731 796 l 731 40 l 471 910 l 447 910 l 92 -168 b 50 -243 79 -204 65 -229 b 0 -264 35 -257 18 -264 l 0 -278 l 143 -278 l 143 -264 b 110 -247 126 -264 115 -258 b 100 -215 103 -236 100 -225 b 110 -161 100 -201 103 -183 l 190 85 l 311 76 l 317 76 b 354 72 326 76 339 75 b 401 47 369 68 386 60 b 451 71 419 60 436 67 b 488 76 467 75 478 76 l 493 76 z m 1007 321 l 879 317 l 1006 313 b 1125 268 1063 311 1103 296 b 1158 163 1147 239 1158 204 l 1172 163 l 1172 471 l 1158 471 b 1125 367 1158 428 1147 393 b 1007 321 1101 339 1063 324 z "},"Ç":{"ha":936,"x_min":0,"x_max":0,"o":"m 440 -319 l 446 -319 b 461 -321 451 -319 457 -319 b 494 -335 476 -322 488 -328 b 506 -358 501 -343 506 -351 b 444 -400 506 -383 485 -397 b 415 -396 432 -400 422 -399 b 401 -392 408 -394 403 -393 l 400 -390 l 396 -399 b 406 -403 399 -400 401 -401 b 446 -410 418 -407 431 -410 b 503 -394 468 -410 488 -404 b 526 -358 518 -385 526 -372 b 508 -325 526 -346 521 -335 b 461 -310 496 -317 479 -311 l 483 -285 b 696 -225 557 -283 628 -264 b 867 -42 765 -185 822 -124 l 858 -35 b 704 -185 818 -101 767 -151 b 517 -235 642 -218 579 -235 b 210 -75 393 -235 290 -182 b 89 340 129 32 89 169 b 133 615 89 438 104 529 b 261 824 163 700 204 769 b 471 903 318 876 388 903 l 489 903 b 693 819 569 897 638 869 b 800 611 749 769 785 700 l 814 525 l 828 526 l 775 878 l 761 876 l 761 868 b 750 844 761 854 758 847 b 740 843 747 843 744 843 b 721 849 735 843 728 844 b 600 899 682 869 642 886 b 471 917 558 911 515 917 b 217 835 372 917 288 889 b 56 617 146 781 93 707 b 0 317 18 526 0 426 b 54 17 0 207 18 107 b 214 -203 90 -75 143 -149 b 460 -285 281 -254 363 -282 z "},"È":{"ha":854,"x_min":0,"x_max":0,"o":"m 771 81 b 524 -264 760 -37 719 -264 l 211 -264 b 149 -117 176 -264 149 -264 l 149 747 b 214 896 149 894 178 896 l 481 896 b 718 632 665 896 707 750 l 732 633 l 704 910 l 0 910 l 0 896 b 64 747 35 896 64 894 l 64 -117 b 3 -264 64 -264 36 -264 l 0 -264 l 0 -278 l 746 -278 l 785 79 z m 214 317 l 340 313 b 493 163 456 311 493 246 l 507 163 l 507 471 l 493 471 b 342 321 493 386 454 325 z m 335 1107 l 296 1107 l 458 986 l 471 986 z "},"É":{"ha":854,"x_min":0,"x_max":0,"o":"m 771 81 b 524 -264 760 -37 719 -264 l 211 -264 b 149 -117 176 -264 149 -264 l 149 747 b 214 896 149 894 178 896 l 481 896 b 718 632 665 896 707 750 l 732 633 l 704 910 l 0 910 l 0 896 b 64 747 35 896 64 894 l 64 -117 b 3 -264 64 -264 36 -264 l 0 -264 l 0 -278 l 746 -278 l 785 79 z m 214 317 l 340 313 b 493 163 456 311 493 246 l 507 163 l 507 471 l 493 471 b 342 321 493 386 454 325 z m 446 1110 l 310 989 l 322 989 l 485 1110 z "},"Ê":{"ha":854,"x_min":0,"x_max":0,"o":"m 771 81 b 524 -264 760 -37 719 -264 l 211 -264 b 149 -117 176 -264 149 -264 l 149 747 b 214 896 149 894 178 896 l 481 896 b 718 632 665 896 707 750 l 732 633 l 704 910 l 0 910 l 0 896 b 64 747 35 896 64 894 l 64 -117 b 3 -264 64 -264 36 -264 l 0 -264 l 0 -278 l 746 -278 l 785 79 z m 214 317 l 340 313 b 493 163 456 311 493 246 l 507 163 l 507 471 l 493 471 b 342 321 493 386 454 325 z m 415 1074 l 400 1088 l 383 1074 l 271 975 l 282 975 l 400 1063 l 517 975 l 528 975 z "},"Ë":{"ha":854,"x_min":0,"x_max":0,"o":"m 771 81 b 524 -264 760 -37 719 -264 l 211 -264 b 149 -117 176 -264 149 -264 l 149 747 b 214 896 149 894 178 896 l 481 896 b 718 632 665 896 707 750 l 732 633 l 704 910 l 0 910 l 0 896 b 64 747 35 896 64 894 l 64 -117 b 3 -264 64 -264 36 -264 l 0 -264 l 0 -278 l 746 -278 l 785 79 z m 214 317 l 340 313 b 493 163 456 311 493 246 l 507 163 l 507 471 l 493 471 b 342 321 493 386 454 325 z m 349 1046 b 310 1007 328 1046 310 1028 b 349 967 310 985 328 967 b 389 1007 371 967 389 985 b 349 1046 389 1028 371 1046 z m 460 1046 b 421 1007 439 1046 421 1028 b 460 967 421 985 439 967 b 500 1007 482 967 500 985 b 460 1046 500 1028 482 1046 z "},"Ì":{"ha":283,"x_min":0,"x_max":0,"o":"m 214 910 l 0 910 l 0 896 b 65 747 36 896 65 894 l 65 -117 b 3 -264 65 -264 38 -264 l 0 -264 l 0 -278 l 214 -278 l 214 -264 l 211 -264 b 149 -117 176 -264 149 -264 l 149 747 b 214 896 149 894 178 896 z m 60 1086 l 21 1086 l 183 965 l 196 965 z "},"Í":{"ha":283,"x_min":0,"x_max":0,"o":"m 214 910 l 0 910 l 0 896 b 65 747 36 896 65 894 l 65 -117 b 3 -264 65 -264 38 -264 l 0 -264 l 0 -278 l 214 -278 l 214 -264 l 211 -264 b 149 -117 176 -264 149 -264 l 149 747 b 214 896 149 894 178 896 z m 146 1101 l 10 981 l 22 981 l 185 1101 z "},"Î":{"ha":283,"x_min":0,"x_max":0,"o":"m 214 910 l 0 910 l 0 896 b 65 747 36 896 65 894 l 65 -117 b 3 -264 65 -264 38 -264 l 0 -264 l 0 -278 l 214 -278 l 214 -264 l 211 -264 b 149 -117 176 -264 149 -264 l 149 747 b 214 896 149 894 178 896 z m 125 1068 l 110 1082 l 93 1068 l -19 969 l -8 969 l 110 1057 l 226 969 l 238 969 z "},"Ï":{"ha":283,"x_min":0,"x_max":0,"o":"m 214 910 l 0 910 l 0 896 b 65 747 36 896 65 894 l 65 -117 b 3 -264 65 -264 38 -264 l 0 -264 l 0 -278 l 214 -278 l 214 -264 l 211 -264 b 149 -117 176 -264 149 -264 l 149 747 b 214 896 149 894 178 896 z m 49 1038 b 10 999 28 1038 10 1019 b 49 958 10 976 28 958 b 89 999 71 958 89 976 b 49 1038 89 1019 71 1038 z m 160 1038 b 121 999 139 1038 121 1019 b 160 958 121 976 139 958 b 200 999 182 958 200 976 b 160 1038 200 1019 182 1038 z "},"Ð":{"ha":963,"x_min":0,"x_max":0,"o":"m 149 310 l 415 310 l 415 324 l 149 324 l 149 747 b 158 853 149 796 151 832 b 181 890 164 874 171 886 b 208 896 189 894 199 896 l 424 896 b 633 818 506 896 576 869 b 763 608 690 765 733 696 b 806 317 792 521 806 424 b 763 25 806 210 792 113 b 633 -185 733 -62 690 -133 b 424 -264 576 -237 506 -264 l 211 -264 b 181 -257 200 -264 190 -261 b 158 -221 171 -253 164 -242 b 149 -117 151 -200 149 -165 z m 65 324 l -200 324 l -200 310 l 65 310 l 65 -117 b 57 -221 65 -165 63 -200 b 35 -257 51 -242 44 -253 b 3 -264 25 -261 14 -264 l 0 -264 l 0 -278 l 424 -278 b 678 -197 522 -278 607 -251 b 838 18 747 -144 800 -72 b 893 317 875 108 893 207 b 838 615 893 426 875 525 b 678 831 800 706 747 776 b 424 910 607 883 522 910 l 0 910 l 0 896 b 33 890 13 896 24 894 b 57 853 43 886 50 874 b 65 747 63 832 65 796 z "},"Ñ":{"ha":874,"x_min":0,"x_max":0,"o":"m 661 910 l 661 896 b 706 876 678 896 694 896 b 725 747 718 858 725 821 l 725 -192 l 125 910 l 0 910 l 0 896 b 46 876 18 896 35 896 b 65 747 57 858 65 821 l 65 -115 b 0 -264 65 -262 36 -264 l 0 -278 l 144 -278 l 144 -264 b 99 -244 126 -264 110 -264 b 79 -115 86 -226 79 -189 l 79 819 l 676 -278 l 739 -278 l 739 747 b 804 896 739 894 768 896 l 804 910 z m 511 969 b 485 963 503 965 494 963 l 478 963 b 414 986 456 963 435 974 b 381 1004 403 992 393 999 b 349 1011 371 1008 360 1011 l 342 1011 b 307 994 329 1011 315 1003 b 288 963 299 985 292 974 b 340 1000 300 982 319 1000 l 343 1000 b 407 974 365 1000 386 988 b 440 957 417 968 428 961 b 472 951 450 954 461 951 l 479 951 b 515 964 492 951 506 956 b 535 996 525 972 532 983 b 511 969 529 985 521 975 z "},"Ò":{"ha":1010,"x_min":0,"x_max":0,"o":"m 469 917 b 0 317 172 917 0 644 b 469 -285 0 -12 172 -285 b 940 317 768 -285 940 -12 b 469 917 940 644 768 917 z m 469 -271 b 89 317 222 -271 89 -4 b 469 903 89 636 222 903 b 851 317 718 903 851 636 b 469 -271 851 -4 718 -271 z m 428 1099 l 389 1099 l 551 978 l 564 978 z "},"Ó":{"ha":1010,"x_min":0,"x_max":0,"o":"m 469 917 b 0 317 172 917 0 644 b 469 -285 0 -12 172 -285 b 940 317 768 -285 940 -12 b 469 917 940 644 768 917 z m 469 -271 b 89 317 222 -271 89 -4 b 469 903 89 636 222 903 b 851 317 718 903 851 636 b 469 -271 851 -4 718 -271 z m 503 1101 l 367 981 l 379 981 l 542 1101 z "},"Ô":{"ha":1010,"x_min":0,"x_max":0,"o":"m 469 917 b 0 317 172 917 0 644 b 469 -285 0 -12 172 -285 b 940 317 768 -285 940 -12 b 469 917 940 644 768 917 z m 469 -271 b 89 317 222 -271 89 -4 b 469 903 89 636 222 903 b 851 317 718 903 851 636 b 469 -271 851 -4 718 -271 z m 488 1076 l 472 1090 l 456 1076 l 343 978 l 354 978 l 472 1065 l 589 978 l 600 978 z "},"Õ":{"ha":1010,"x_min":0,"x_max":0,"o":"m 469 917 b 0 317 172 917 0 644 b 469 -285 0 -12 172 -285 b 940 317 768 -285 940 -12 b 469 917 940 644 768 917 z m 469 -271 b 89 317 222 -271 89 -4 b 469 903 89 636 222 903 b 851 317 718 903 851 636 b 469 -271 851 -4 718 -271 z m 579 1001 b 553 994 571 997 563 994 l 546 994 b 482 1018 524 994 503 1006 b 449 1036 471 1024 461 1031 b 417 1043 439 1040 428 1043 l 410 1043 b 375 1026 397 1043 383 1035 b 356 994 367 1017 360 1006 b 408 1032 368 1014 388 1032 l 411 1032 b 475 1006 433 1032 454 1019 b 508 989 485 1000 496 993 b 540 983 518 986 529 983 l 547 983 b 583 996 560 983 574 988 b 603 1028 593 1004 600 1015 b 579 1001 597 1017 589 1007 z "},"Ö":{"ha":1010,"x_min":0,"x_max":0,"o":"m 469 917 b 0 317 172 917 0 644 b 469 -285 0 -12 172 -285 b 940 317 768 -285 940 -12 b 469 917 940 644 768 917 z m 469 -271 b 89 317 222 -271 89 -4 b 469 903 89 636 222 903 b 851 317 718 903 851 636 b 469 -271 851 -4 718 -271 z m 411 1056 b 372 1017 390 1056 372 1038 b 411 976 372 994 390 976 b 451 1017 433 976 451 994 b 411 1056 451 1038 433 1056 z m 522 1056 b 483 1017 501 1056 483 1038 b 522 976 483 994 501 976 b 563 1017 544 976 563 994 b 522 1056 563 1038 544 1056 z "},"×":{"ha":515,"x_min":0,"x_max":0,"o":"m 446 324 l 435 333 l 222 121 l 10 333 l 0 324 l 213 111 l 0 -101 l 10 -111 l 222 101 l 435 -111 l 446 -101 l 233 111 z "},"Ø":{"ha":1011,"x_min":0,"x_max":0,"o":"m 942 317 b 478 917 942 642 771 913 l 478 1076 l 464 1076 l 464 917 b 0 317 171 913 0 642 b 464 -285 0 -8 171 -279 l 464 -444 l 478 -444 l 478 -285 b 942 317 771 -279 942 -8 z m 89 317 b 464 903 89 633 221 899 l 464 -269 b 89 317 221 -265 89 0 z m 478 903 b 853 317 722 899 853 633 b 478 -269 853 0 722 -265 z "},"Ù":{"ha":919,"x_min":0,"x_max":0,"o":"m 707 910 l 707 896 b 753 876 725 896 740 896 b 772 747 764 858 772 821 l 772 60 b 450 -256 772 -133 621 -256 b 150 47 278 -256 150 -146 l 150 747 b 214 896 150 894 178 896 l 214 910 l 0 910 l 0 896 b 46 876 18 896 35 896 b 65 747 58 858 65 821 l 65 71 b 428 -278 65 -158 229 -278 b 786 63 628 -278 786 -136 l 786 747 b 850 896 786 894 815 896 l 850 910 z m 417 1081 l 378 1081 l 540 960 l 553 960 z "},"Ú":{"ha":919,"x_min":0,"x_max":0,"o":"m 707 910 l 707 896 b 753 876 725 896 740 896 b 772 747 764 858 772 821 l 772 60 b 450 -256 772 -133 621 -256 b 150 47 278 -256 150 -146 l 150 747 b 214 896 150 894 178 896 l 214 910 l 0 910 l 0 896 b 46 876 18 896 35 896 b 65 747 58 858 65 821 l 65 71 b 428 -278 65 -158 229 -278 b 786 63 628 -278 786 -136 l 786 747 b 850 896 786 894 815 896 l 850 910 z m 518 1099 l 382 978 l 394 978 l 557 1099 z "},"Û":{"ha":919,"x_min":0,"x_max":0,"o":"m 707 910 l 707 896 b 753 876 725 896 740 896 b 772 747 764 858 772 821 l 772 60 b 450 -256 772 -133 621 -256 b 150 47 278 -256 150 -146 l 150 747 b 214 896 150 894 178 896 l 214 910 l 0 910 l 0 896 b 46 876 18 896 35 896 b 65 747 58 858 65 821 l 65 71 b 428 -278 65 -158 229 -278 b 786 63 628 -278 786 -136 l 786 747 b 850 896 786 894 815 896 l 850 910 z m 501 1056 l 486 1069 l 469 1056 l 357 957 l 368 957 l 486 1044 l 603 957 l 614 957 z "},"Ü":{"ha":919,"x_min":0,"x_max":0,"o":"m 707 910 l 707 896 b 753 876 725 896 740 896 b 772 747 764 858 772 821 l 772 60 b 450 -256 772 -133 621 -256 b 150 47 278 -256 150 -146 l 150 747 b 214 896 150 894 178 896 l 214 910 l 0 910 l 0 896 b 46 876 18 896 35 896 b 65 747 58 858 65 821 l 65 71 b 428 -278 65 -158 229 -278 b 786 63 628 -278 786 -136 l 786 747 b 850 896 786 894 815 896 l 850 910 z m 426 1036 b 388 997 406 1036 388 1018 b 426 957 388 975 406 957 b 467 997 449 957 467 975 b 426 1036 467 1018 449 1036 z m 538 1036 b 499 997 517 1036 499 1018 b 538 957 499 975 517 957 b 578 997 560 957 578 975 b 538 1036 578 1018 560 1036 z "},"Ý":{"ha":938,"x_min":0,"x_max":0,"o":"m 474 265 l 764 810 b 868 896 796 874 832 896 l 868 910 l 724 910 l 724 896 b 763 857 744 896 763 883 b 749 808 763 844 758 828 l 467 281 l 201 789 b 182 857 188 818 182 840 b 214 896 182 883 196 896 l 214 910 l 0 910 l 0 896 b 108 786 32 896 68 865 l 390 244 l 390 -117 b 328 -264 390 -264 363 -264 l 325 -264 l 325 -278 l 539 -278 l 539 -264 l 536 -264 b 474 -117 501 -264 474 -264 z m 521 1068 l 385 947 l 397 947 l 560 1068 z "},"Þ":{"ha":857,"x_min":0,"x_max":0,"o":"m 158 1006 b 182 1043 164 1026 172 1039 b 214 1049 192 1047 201 1049 l 214 1063 l 0 1063 l 0 1049 b 33 1043 13 1049 24 1047 b 57 1006 43 1039 50 1026 b 65 392 63 986 65 782 b 57 -221 65 3 63 -201 b 35 -257 51 -242 44 -253 b 3 -264 25 -261 15 -264 l 0 -264 l 0 -278 l 214 -278 l 214 -264 l 211 -264 b 181 -257 200 -264 190 -261 b 158 -221 171 -253 164 -242 b 150 747 153 -201 150 121 b 158 853 150 796 153 832 b 182 890 164 874 172 886 b 214 896 192 894 201 896 l 389 896 b 563 856 460 896 517 882 b 664 751 608 829 642 794 b 696 615 685 708 696 663 b 639 426 696 539 676 475 b 499 308 601 376 554 338 b 329 244 443 279 386 258 b 283 235 314 240 299 238 b 265 232 276 233 271 233 b 432 257 317 233 372 242 b 601 322 492 271 547 293 b 735 438 656 351 700 389 b 788 613 769 485 788 543 b 692 828 788 700 756 772 b 458 910 626 882 549 910 l 149 910 b 158 1006 149 954 151 986 z "},"ß":{"ha":857,"x_min":0,"x_max":0,"o":"m 503 375 b 708 653 540 388 708 458 b 436 910 708 786 624 910 l 311 910 b 65 664 175 910 65 800 l 65 -117 b 3 -264 65 -264 38 -264 l 0 -264 l 0 -278 l 149 -278 l 149 747 b 315 896 149 890 279 896 l 365 896 b 619 653 546 896 619 781 b 300 365 619 413 390 365 b 696 51 511 365 696 272 b 621 -171 696 -36 672 -114 b 388 -264 571 -228 493 -264 l 294 -264 l 294 -278 l 458 -278 b 788 46 640 -278 788 -143 b 503 375 788 272 615 349 z "},"à":{"ha":793,"x_min":0,"x_max":0,"o":"m 717 -143 b 646 -243 717 -143 699 -243 b 615 -201 629 -243 615 -236 l 615 388 b 331 517 499 500 411 517 b 0 67 164 517 0 357 b 256 -279 0 -178 121 -279 b 531 -11 432 -279 508 -119 l 531 -190 b 606 -279 531 -272 588 -279 b 724 -144 699 -279 719 -165 z m 294 -247 b 86 96 149 -247 86 -93 b 332 503 86 360 210 503 b 531 347 436 503 507 438 l 531 47 b 294 -247 513 -106 428 -247 z m 275 740 l 236 740 l 399 619 l 411 619 z "},"á":{"ha":793,"x_min":0,"x_max":0,"o":"m 717 -143 b 646 -243 717 -143 699 -243 b 615 -201 629 -243 615 -236 l 615 388 b 331 517 499 500 411 517 b 0 67 164 517 0 357 b 256 -279 0 -178 121 -279 b 531 -11 432 -279 508 -119 l 531 -190 b 606 -279 531 -272 588 -279 b 724 -144 699 -279 719 -165 z m 294 -247 b 86 96 149 -247 86 -93 b 332 503 86 360 210 503 b 531 347 436 503 507 438 l 531 47 b 294 -247 513 -106 428 -247 z m 376 715 l 240 594 l 253 594 l 415 715 z "},"â":{"ha":793,"x_min":0,"x_max":0,"o":"m 717 -143 b 646 -243 717 -143 699 -243 b 615 -201 629 -243 615 -236 l 615 388 b 331 517 499 500 411 517 b 0 67 164 517 0 357 b 256 -279 0 -178 121 -279 b 531 -11 432 -279 508 -119 l 531 -190 b 606 -279 531 -272 588 -279 b 724 -144 699 -279 719 -165 z m 294 -247 b 86 96 149 -247 86 -93 b 332 503 86 360 210 503 b 531 347 436 503 507 438 l 531 47 b 294 -247 513 -106 428 -247 z m 360 697 l 344 711 l 328 697 l 215 599 l 226 599 l 344 686 l 461 599 l 472 599 z "},"ã":{"ha":793,"x_min":0,"x_max":0,"o":"m 717 -143 b 646 -243 717 -143 699 -243 b 615 -201 629 -243 615 -236 l 615 388 b 331 517 499 500 411 517 b 0 67 164 517 0 357 b 256 -279 0 -178 121 -279 b 531 -11 432 -279 508 -119 l 531 -190 b 606 -279 531 -272 588 -279 b 724 -144 699 -279 719 -165 z m 294 -247 b 86 96 149 -247 86 -93 b 332 503 86 360 210 503 b 531 347 436 503 507 438 l 531 47 b 294 -247 513 -106 428 -247 z m 439 610 b 413 603 431 606 422 603 l 406 603 b 342 626 383 603 363 614 b 308 644 331 632 321 639 b 276 651 299 649 288 651 l 269 651 b 235 635 257 651 243 643 b 215 603 226 625 219 614 b 268 640 228 622 247 640 l 271 640 b 335 614 293 640 314 628 b 368 597 344 608 356 601 b 400 592 378 594 389 592 l 407 592 b 443 604 419 592 433 596 b 463 636 453 613 460 624 b 439 610 457 625 449 615 z "},"ä":{"ha":793,"x_min":0,"x_max":0,"o":"m 717 -143 b 646 -243 717 -143 699 -243 b 615 -201 629 -243 615 -236 l 615 388 b 331 517 499 500 411 517 b 0 67 164 517 0 357 b 256 -279 0 -178 121 -279 b 531 -11 432 -279 508 -119 l 531 -190 b 606 -279 531 -272 588 -279 b 724 -144 699 -279 719 -165 z m 294 -247 b 86 96 149 -247 86 -93 b 332 503 86 360 210 503 b 531 347 436 503 507 438 l 531 47 b 294 -247 513 -106 428 -247 z m 283 660 b 244 621 263 660 244 642 b 283 581 244 599 263 581 b 324 621 306 581 324 599 b 283 660 324 642 306 660 z m 394 660 b 356 621 374 660 356 642 b 394 581 356 599 374 581 b 435 621 417 581 435 599 b 394 660 435 642 417 660 z "},"å":{"ha":793,"x_min":0,"x_max":0,"o":"m 717 -143 b 646 -243 717 -143 699 -243 b 615 -201 629 -243 615 -236 l 615 388 b 331 517 499 500 411 517 b 0 67 164 517 0 357 b 256 -279 0 -178 121 -279 b 531 -11 432 -279 508 -119 l 531 -190 b 606 -279 531 -272 588 -279 b 724 -144 699 -279 719 -165 z m 294 -247 b 86 96 149 -247 86 -93 b 332 503 86 360 210 503 b 531 347 436 503 507 438 l 531 47 b 294 -247 513 -106 428 -247 z m 328 581 b 404 657 371 581 404 615 b 328 735 404 700 371 735 b 251 657 285 735 251 700 b 328 581 251 615 285 581 z m 328 719 b 390 657 363 719 390 692 b 328 594 390 622 363 594 b 265 657 293 594 265 622 b 328 719 265 692 293 719 z "},"æ":{"ha":1194,"x_min":0,"x_max":0,"o":"m 294 -247 b 176 -200 246 -247 207 -232 b 108 -76 144 -169 122 -128 b 86 96 93 -25 86 33 b 122 319 86 183 99 258 b 215 457 146 379 178 425 b 332 503 253 488 292 503 b 461 460 383 503 426 489 b 531 347 496 431 518 393 l 531 47 b 492 -96 525 -4 513 -51 b 411 -204 471 -140 444 -176 b 294 -247 378 -233 339 -247 z m 674 -233 b 646 -243 665 -240 657 -243 b 625 -235 638 -243 631 -240 b 615 -201 618 -231 615 -219 l 615 -174 b 674 -232 632 -196 651 -215 z m 706 -182 b 646 -69 681 -151 660 -114 b 618 118 628 -12 618 50 b 643 307 618 188 626 250 b 717 443 660 364 685 408 b 839 493 749 476 790 493 b 928 469 869 493 899 485 b 1000 389 957 454 981 426 b 1032 232 1018 350 1029 297 l 644 226 l 1032 218 l 1125 215 l 1124 233 b 1060 407 1114 310 1092 367 b 949 486 1026 446 989 472 b 842 507 907 500 871 507 b 672 456 774 507 718 490 b 610 393 649 438 628 417 b 460 493 554 444 504 478 b 331 517 414 508 371 517 b 172 465 275 517 222 500 b 49 313 121 431 81 379 b 0 67 17 244 0 163 b 36 -132 0 -15 13 -81 b 131 -243 60 -183 92 -219 b 256 -279 169 -267 211 -279 b 400 -235 314 -279 363 -264 b 489 -129 438 -206 468 -169 b 531 -11 510 -89 524 -49 l 531 -190 b 546 -249 531 -217 536 -236 b 579 -274 556 -261 567 -269 b 606 -279 592 -278 600 -279 b 675 -253 635 -279 658 -271 b 685 -240 678 -249 682 -244 b 849 -287 729 -272 785 -287 b 938 -274 875 -287 906 -283 b 1031 -222 969 -264 1001 -247 b 1108 -117 1060 -197 1086 -162 l 1099 -111 b 875 -257 1049 -208 974 -257 b 731 -206 817 -257 768 -240 b 713 -189 724 -200 718 -194 z "},"ç":{"ha":640,"x_min":0,"x_max":0,"o":"m 301 -279 l 282 -314 l 288 -314 b 303 -315 293 -314 299 -314 b 336 -329 318 -317 329 -322 b 347 -353 343 -337 347 -346 b 286 -394 347 -378 326 -392 b 257 -390 274 -394 264 -393 b 243 -386 250 -389 244 -387 l 242 -385 l 238 -393 b 247 -397 240 -394 243 -396 b 288 -404 260 -401 272 -404 b 344 -389 310 -404 329 -399 b 368 -353 360 -379 368 -367 b 350 -319 368 -340 363 -329 b 303 -304 338 -311 321 -306 l 326 -279 b 404 -264 350 -278 376 -274 b 496 -212 436 -254 467 -237 b 571 -107 525 -187 550 -153 l 563 -101 b 343 -249 515 -200 442 -249 b 199 -200 285 -249 236 -232 b 114 -68 161 -168 132 -124 b 86 119 96 -12 86 50 b 110 310 86 188 94 251 b 185 450 125 368 150 415 b 319 501 219 485 264 501 b 442 449 364 501 404 483 b 525 271 479 414 507 354 b 529 272 526 272 528 272 b 532 272 531 272 531 272 b 535 274 533 274 533 274 b 539 274 536 274 538 274 l 525 431 b 440 489 507 450 478 469 b 319 517 403 507 363 517 b 142 463 249 517 189 499 b 36 317 94 425 60 376 b 0 118 13 257 0 190 b 36 -79 0 47 13 -19 b 142 -224 60 -139 94 -187 b 301 -279 186 -258 239 -276 z "},"è":{"ha":663,"x_min":0,"x_max":0,"o":"m 575 -117 l 567 -111 b 343 -257 522 -206 442 -257 b 86 118 169 -257 86 -89 b 307 493 86 326 161 493 b 500 232 397 493 493 432 l 113 226 l 500 218 l 593 215 b 592 233 592 222 592 228 b 308 507 567 463 399 507 b 0 118 108 507 0 333 b 317 -287 0 -106 107 -287 b 575 -117 399 -287 513 -254 z m 249 682 l 210 682 l 372 561 l 385 561 z "},"é":{"ha":663,"x_min":0,"x_max":0,"o":"m 575 -117 l 567 -111 b 343 -257 522 -206 442 -257 b 86 118 169 -257 86 -89 b 307 493 86 326 161 493 b 500 232 397 493 493 432 l 113 226 l 500 218 l 593 215 b 592 233 592 222 592 228 b 308 507 567 463 399 507 b 0 118 108 507 0 333 b 317 -287 0 -106 107 -287 b 575 -117 399 -287 513 -254 z m 353 676 l 217 556 l 229 556 l 392 676 z "},"ê":{"ha":663,"x_min":0,"x_max":0,"o":"m 575 -117 l 567 -111 b 343 -257 522 -206 442 -257 b 86 118 169 -257 86 -89 b 307 493 86 326 161 493 b 500 232 397 493 493 432 l 113 226 l 500 218 l 593 215 b 592 233 592 222 592 228 b 308 507 567 463 399 507 b 0 118 108 507 0 333 b 317 -287 0 -106 107 -287 b 575 -117 399 -287 513 -254 z m 318 661 l 303 675 l 286 661 l 174 563 l 185 563 l 303 650 l 419 563 l 431 563 z "},"ë":{"ha":663,"x_min":0,"x_max":0,"o":"m 575 -117 l 567 -111 b 343 -257 522 -206 442 -257 b 86 118 169 -257 86 -89 b 307 493 86 326 161 493 b 500 232 397 493 493 432 l 113 226 l 500 218 l 593 215 b 592 233 592 222 592 228 b 308 507 567 463 399 507 b 0 118 108 507 0 333 b 317 -287 0 -106 107 -287 b 575 -117 399 -287 513 -254 z m 265 644 b 226 606 244 644 226 626 b 265 565 226 583 244 565 b 306 606 288 565 306 583 b 265 644 306 626 288 644 z m 376 644 b 338 606 356 644 338 626 b 376 565 338 583 356 565 b 417 606 399 565 417 583 b 376 644 417 626 399 644 z "},"ì":{"ha":282,"x_min":0,"x_max":0,"o":"m 210 -264 b 149 -118 175 -264 149 -262 l 149 501 b 78 472 131 492 107 481 b 0 460 47 464 21 460 l 0 446 l 7 446 b 64 296 26 446 64 439 l 64 -118 b 3 -264 64 -262 38 -264 l 0 -264 l 0 -279 l 213 -279 l 213 -264 z m 29 667 l -10 667 l 153 546 l 165 546 z "},"í":{"ha":282,"x_min":0,"x_max":0,"o":"m 210 -264 b 149 -118 175 -264 149 -262 l 149 501 b 78 472 131 492 107 481 b 0 460 47 464 21 460 l 0 446 l 7 446 b 64 296 26 446 64 439 l 64 -118 b 3 -264 64 -262 38 -264 l 0 -264 l 0 -279 l 213 -279 l 213 -264 z m 125 646 l -11 525 l 1 525 l 164 646 z "},"î":{"ha":282,"x_min":0,"x_max":0,"o":"m 210 -264 b 149 -118 175 -264 149 -262 l 149 501 b 78 472 131 492 107 481 b 0 460 47 464 21 460 l 0 446 l 7 446 b 64 296 26 446 64 439 l 64 -118 b 3 -264 64 -262 38 -264 l 0 -264 l 0 -279 l 213 -279 l 213 -264 z m 108 632 l 93 646 l 76 632 l -36 533 l -25 533 l 93 621 l 210 533 l 221 533 z "},"ï":{"ha":282,"x_min":0,"x_max":0,"o":"m 210 -264 b 149 -118 175 -264 149 -262 l 149 501 b 78 472 131 492 107 481 b 0 460 47 464 21 460 l 0 446 l 7 446 b 64 296 26 446 64 439 l 64 -118 b 3 -264 64 -262 38 -264 l 0 -264 l 0 -279 l 213 -279 l 213 -264 z m 36 629 b -3 590 15 629 -3 611 b 36 550 -3 568 15 550 b 76 590 58 550 76 568 b 36 629 76 611 58 629 z m 147 629 b 108 590 126 629 108 611 b 147 550 108 568 126 550 b 188 590 169 550 188 568 b 147 629 188 611 169 629 z "},"ð":{"ha":743,"x_min":0,"x_max":0,"o":"m 336 -264 b 193 -214 278 -264 231 -247 b 110 -83 156 -182 128 -137 b 83 99 92 -29 83 32 b 110 282 83 167 92 228 b 193 414 128 336 156 381 b 336 463 231 446 278 463 b 465 428 385 463 428 451 b 556 313 503 404 533 365 b 589 99 578 258 589 188 b 564 -83 589 32 581 -29 b 482 -214 546 -137 519 -182 b 336 -264 444 -247 396 -264 z m 376 668 l 106 668 l 106 654 l 386 654 b 529 399 442 582 489 497 b 440 457 503 425 474 444 b 336 476 406 469 371 476 b 150 426 263 476 200 460 b 38 289 100 392 63 346 b 0 99 13 232 0 168 b 38 -90 0 29 13 -33 b 150 -226 63 -147 100 -193 b 336 -278 200 -261 263 -278 b 589 -168 449 -278 532 -242 b 674 138 646 -96 674 6 b 600 446 674 246 649 349 b 460 654 563 521 515 590 l 721 654 l 721 668 l 447 668 b 410 708 435 682 422 696 b 158 910 332 788 249 854 b 156 903 157 907 157 904 b 153 899 154 901 154 900 l 151 897 l 151 896 l 153 894 b 208 847 157 892 175 875 l 208 846 l 210 846 l 214 842 b 217 840 215 842 215 840 l 217 839 l 218 839 l 218 838 b 221 836 219 838 219 838 l 222 836 b 376 668 268 796 319 740 z "},"ñ":{"ha":792,"x_min":0,"x_max":0,"o":"m 718 -264 b 657 -118 683 -264 657 -262 l 657 251 b 403 508 657 422 546 508 b 149 356 307 508 207 450 l 149 501 b 78 472 131 492 107 481 b 0 460 47 464 21 460 l 0 446 l 7 446 b 64 296 26 446 64 439 l 64 -118 b 3 -264 64 -262 38 -264 l 0 -264 l 0 -279 l 214 -279 l 214 -264 l 210 -264 b 149 -118 175 -264 149 -262 l 149 324 b 397 494 194 425 306 494 b 574 264 542 494 574 397 l 574 -118 b 513 -264 574 -262 547 -264 l 508 -264 l 508 -279 l 722 -279 l 722 -264 z m 471 601 b 444 594 463 597 454 594 l 438 594 b 374 618 415 594 394 606 b 340 636 363 624 353 631 b 308 643 331 640 319 643 l 301 643 b 267 626 289 643 275 635 b 247 594 258 617 251 606 b 300 632 260 614 279 632 l 303 632 b 367 606 325 632 346 619 b 400 589 376 600 388 593 b 432 583 410 586 421 583 l 439 583 b 475 596 451 583 465 588 b 494 628 485 604 492 615 b 471 601 489 617 481 607 z "},"ò":{"ha":708,"x_min":0,"x_max":0,"o":"m 319 517 b 0 119 106 517 0 335 b 319 -278 0 -96 106 -278 b 639 119 533 -278 639 -96 b 319 517 639 335 533 517 z m 319 -262 b 86 119 153 -262 86 -87 b 319 503 86 328 153 503 b 553 119 485 503 553 328 b 319 -262 553 -87 485 -262 z m 269 700 l 231 700 l 393 579 l 406 579 z "},"ó":{"ha":708,"x_min":0,"x_max":0,"o":"m 319 517 b 0 119 106 517 0 335 b 319 -278 0 -96 106 -278 b 639 119 533 -278 639 -96 b 319 517 639 335 533 517 z m 319 -262 b 86 119 153 -262 86 -87 b 319 503 86 328 153 503 b 553 119 485 503 553 328 b 319 -262 553 -87 485 -262 z m 371 707 l 235 586 l 247 586 l 410 707 z "},"ô":{"ha":708,"x_min":0,"x_max":0,"o":"m 319 517 b 0 119 106 517 0 335 b 319 -278 0 -96 106 -278 b 639 119 533 -278 639 -96 b 319 517 639 335 533 517 z m 319 -262 b 86 119 153 -262 86 -87 b 319 503 86 328 153 503 b 553 119 485 503 553 328 b 319 -262 553 -87 485 -262 z m 340 683 l 325 697 l 308 683 l 196 585 l 207 585 l 325 672 l 442 585 l 453 585 z "},"õ":{"ha":708,"x_min":0,"x_max":0,"o":"m 319 517 b 0 119 106 517 0 335 b 319 -278 0 -96 106 -278 b 639 119 533 -278 639 -96 b 319 517 639 335 533 517 z m 319 -262 b 86 119 153 -262 86 -87 b 319 503 86 328 153 503 b 553 119 485 503 553 328 b 319 -262 553 -87 485 -262 z m 419 613 b 393 606 411 608 403 606 l 386 606 b 322 629 364 606 343 617 b 289 647 311 635 301 642 b 257 654 279 651 268 654 l 250 654 b 215 638 238 654 224 646 b 196 606 207 628 200 617 b 249 643 208 625 228 643 l 251 643 b 315 617 274 643 294 631 b 349 600 325 611 336 604 b 381 594 358 597 369 594 l 388 594 b 424 607 400 594 414 599 b 443 639 433 615 440 626 b 419 613 438 628 429 618 z "},"ö":{"ha":708,"x_min":0,"x_max":0,"o":"m 319 517 b 0 119 106 517 0 335 b 319 -278 0 -96 106 -278 b 639 119 533 -278 639 -96 b 319 517 639 335 533 517 z m 319 -262 b 86 119 153 -262 86 -87 b 319 503 86 328 153 503 b 553 119 485 503 553 328 b 319 -262 553 -87 485 -262 z m 267 657 b 228 618 246 657 228 639 b 267 578 228 596 246 578 b 307 618 289 578 307 596 b 267 657 307 639 289 657 z m 378 657 b 339 618 357 657 339 639 b 378 578 339 596 357 578 b 418 618 400 578 418 596 b 378 657 418 639 400 657 z "},"÷":{"ha":685,"x_min":0,"x_max":0,"o":"m 615 118 l 0 118 l 0 104 l 615 104 z m 308 -57 b 257 -108 275 -57 257 -79 b 308 -160 257 -136 274 -160 b 360 -108 342 -160 360 -136 b 308 -57 360 -79 342 -57 z m 308 279 b 360 331 342 279 360 301 b 308 382 360 358 342 382 b 257 331 275 382 257 358 b 308 279 257 301 274 279 z "},"ø":{"ha":708,"x_min":0,"x_max":0,"o":"m 197 -222 l 451 453 b 454 451 453 451 453 451 b 529 311 489 417 514 369 b 553 119 544 253 553 189 b 529 -71 553 51 544 -12 b 454 -210 514 -129 489 -175 b 319 -262 419 -244 374 -262 b 197 -222 271 -262 229 -249 z m 442 463 l 186 -212 b 185 -210 186 -211 186 -211 b 110 -71 150 -175 125 -129 b 86 119 94 -12 86 51 b 110 311 86 189 94 253 b 185 451 125 369 150 417 b 319 503 219 486 264 503 b 442 463 368 503 408 489 z m 464 485 l 550 714 l 536 714 l 451 490 b 319 517 414 508 369 517 b 142 463 249 517 189 499 b 35 318 93 426 58 378 b 0 119 11 258 0 192 b 35 -79 0 47 11 -19 b 142 -224 58 -139 93 -187 b 174 -244 151 -232 163 -239 l 88 -474 l 103 -474 l 186 -251 b 319 -278 225 -269 269 -278 b 497 -224 390 -278 450 -260 b 604 -79 544 -187 581 -139 b 639 119 628 -19 639 47 b 604 318 639 192 628 258 b 497 463 581 378 544 426 b 464 485 486 471 475 478 z "},"ù":{"ha":793,"x_min":0,"x_max":0,"o":"m 658 503 b 589 471 642 493 619 481 b 510 461 557 463 529 461 l 510 447 l 513 447 b 574 300 546 447 574 447 l 574 -99 b 325 -271 528 -200 417 -271 b 150 -39 181 -271 150 -172 l 150 503 b 79 472 133 493 110 481 b 0 461 47 463 21 461 l 0 447 l 3 447 b 65 300 38 447 65 447 l 65 -26 b 139 -219 65 -112 93 -176 b 321 -283 185 -262 249 -283 b 574 -131 417 -283 515 -225 l 574 -276 b 644 -247 592 -267 615 -256 b 724 -235 675 -239 701 -236 l 724 -221 l 717 -221 b 658 -72 696 -221 658 -214 z m 306 654 l 267 654 l 429 533 l 442 533 z "},"ú":{"ha":793,"x_min":0,"x_max":0,"o":"m 658 503 b 589 471 642 493 619 481 b 510 461 557 463 529 461 l 510 447 l 513 447 b 574 300 546 447 574 447 l 574 -99 b 325 -271 528 -200 417 -271 b 150 -39 181 -271 150 -172 l 150 503 b 79 472 133 493 110 481 b 0 461 47 463 21 461 l 0 447 l 3 447 b 65 300 38 447 65 447 l 65 -26 b 139 -219 65 -112 93 -176 b 321 -283 185 -262 249 -283 b 574 -131 417 -283 515 -225 l 574 -276 b 644 -247 592 -267 615 -256 b 724 -235 675 -239 701 -236 l 724 -221 l 717 -221 b 658 -72 696 -221 658 -214 z m 401 668 l 265 547 l 278 547 l 440 668 z "},"û":{"ha":793,"x_min":0,"x_max":0,"o":"m 658 503 b 589 471 642 493 619 481 b 510 461 557 463 529 461 l 510 447 l 513 447 b 574 300 546 447 574 447 l 574 -99 b 325 -271 528 -200 417 -271 b 150 -39 181 -271 150 -172 l 150 503 b 79 472 133 493 110 481 b 0 461 47 463 21 461 l 0 447 l 3 447 b 65 300 38 447 65 447 l 65 -26 b 139 -219 65 -112 93 -176 b 321 -283 185 -262 249 -283 b 574 -131 417 -283 515 -225 l 574 -276 b 644 -247 592 -267 615 -256 b 724 -235 675 -239 701 -236 l 724 -221 l 717 -221 b 658 -72 696 -221 658 -214 z m 378 653 l 363 667 l 346 653 l 233 554 l 244 554 l 363 642 l 479 554 l 490 554 z "},"ü":{"ha":793,"x_min":0,"x_max":0,"o":"m 658 503 b 589 471 642 493 619 481 b 510 461 557 463 529 461 l 510 447 l 513 447 b 574 300 546 447 574 447 l 574 -99 b 325 -271 528 -200 417 -271 b 150 -39 181 -271 150 -172 l 150 503 b 79 472 133 493 110 481 b 0 461 47 463 21 461 l 0 447 l 3 447 b 65 300 38 447 65 447 l 65 -26 b 139 -219 65 -112 93 -176 b 321 -283 185 -262 249 -283 b 574 -131 417 -283 515 -225 l 574 -276 b 644 -247 592 -267 615 -256 b 724 -235 675 -239 701 -236 l 724 -221 l 717 -221 b 658 -72 696 -221 658 -214 z m 310 607 b 271 568 289 607 271 589 b 310 528 271 546 289 528 b 350 568 332 528 350 546 b 310 607 350 589 332 607 z m 421 607 b 382 568 400 607 382 589 b 421 528 382 546 400 528 b 461 568 443 528 461 546 b 421 607 461 589 443 607 z "},"ý":{"ha":765,"x_min":0,"x_max":0,"o":"m 553 501 l 553 488 b 599 439 578 488 599 478 b 583 365 599 421 594 397 l 390 -157 l 188 371 b 169 446 175 406 169 429 b 214 488 169 482 192 488 l 214 501 l 0 501 l 0 488 b 103 360 33 488 57 476 l 349 -279 b 201 -603 349 -279 276 -483 b 168 -628 190 -619 179 -628 b 46 -450 110 -628 46 -450 l 26 -456 b 93 -743 26 -456 58 -592 b 361 -279 197 -743 331 -365 l 600 374 b 696 488 632 468 664 488 l 696 501 z m 444 661 l 308 540 l 321 540 l 483 661 z "},"þ":{"ha":750,"x_min":0,"x_max":0,"o":"m 425 517 b 150 249 250 517 172 358 l 150 640 b 79 611 132 631 108 619 b 0 599 49 603 21 600 l 0 585 l 7 585 b 65 435 28 585 65 578 l 65 -582 b 3 -728 65 -728 38 -728 l 0 -728 l 0 -742 l 214 -742 l 214 -728 l 211 -728 b 150 -582 178 -728 150 -728 l 150 -185 b 363 -279 203 -243 279 -279 b 681 171 528 -279 681 -119 b 425 517 681 415 560 517 z m 360 -265 b 150 -86 257 -265 179 -193 l 150 190 b 386 485 168 343 253 485 b 594 142 532 485 594 331 b 360 -265 594 -122 483 -265 z "},"ÿ":{"ha":765,"x_min":0,"x_max":0,"o":"m 553 501 l 553 488 b 599 439 578 488 599 478 b 583 365 599 421 594 397 l 390 -157 l 188 371 b 169 446 175 406 169 429 b 214 488 169 482 192 488 l 214 501 l 0 501 l 0 488 b 103 360 33 488 57 476 l 349 -279 b 201 -603 349 -279 276 -483 b 168 -628 190 -619 179 -628 b 46 -450 110 -628 46 -450 l 26 -456 b 93 -743 26 -456 58 -592 b 361 -279 197 -743 331 -365 l 600 374 b 696 488 632 468 664 488 l 696 501 z m 339 613 b 300 574 318 613 300 594 b 339 533 300 551 318 533 b 379 574 361 533 379 551 b 339 613 379 594 361 613 z m 450 613 b 411 574 429 613 411 594 b 450 533 411 551 429 533 b 490 574 472 533 490 551 b 450 613 490 594 472 613 z "},"ı":{"ha":282,"x_min":0,"x_max":0,"o":"m 210 -264 b 149 -118 175 -264 149 -262 l 149 501 b 78 472 131 492 107 481 b 0 460 47 464 21 460 l 0 446 l 7 446 b 64 296 26 446 64 439 l 64 -118 b 3 -264 64 -262 38 -264 l 0 -264 l 0 -279 l 213 -279 l 213 -264 z "},"̀":{"ha":244,"x_min":0,"x_max":0,"o":"m 39 1174 l 0 1174 l 163 1053 l 175 1053 z "},"́":{"ha":244,"x_min":0,"x_max":0,"o":"m 136 1174 l 0 1053 l 13 1053 l 175 1174 z "},"̂":{"ha":326,"x_min":0,"x_max":0,"o":"m 144 1156 l 129 1169 l 113 1156 l 0 1057 l 11 1057 l 129 1144 l 246 1057 l 257 1057 z "},"̃":{"ha":317,"x_min":0,"x_max":0,"o":"m 224 1101 b 197 1094 215 1097 207 1094 l 190 1094 b 126 1118 168 1094 147 1106 b 93 1136 115 1124 106 1131 b 61 1143 83 1140 72 1143 l 54 1143 b 19 1126 42 1143 28 1135 b 0 1094 11 1117 4 1106 b 53 1132 13 1114 32 1132 l 56 1132 b 119 1106 78 1132 99 1119 b 153 1089 129 1100 140 1093 b 185 1083 163 1086 174 1083 l 192 1083 b 228 1096 204 1083 218 1088 b 247 1128 238 1104 244 1115 b 224 1101 242 1117 233 1107 z "},"̄":{"ha":275,"x_min":0,"x_max":0,"o":"m 206 1121 l 0 1121 l 0 1106 l 206 1106 z "},"̇":{"ha":149,"x_min":0,"x_max":0,"o":"m 39 1151 b 0 1113 18 1151 0 1133 b 39 1072 0 1090 18 1072 b 79 1113 61 1072 79 1090 b 39 1151 79 1133 61 1151 z "},"̈":{"ha":260,"x_min":0,"x_max":0,"o":"m 39 1151 b 0 1113 18 1151 0 1133 b 39 1072 0 1090 18 1072 b 79 1113 61 1072 79 1090 b 39 1151 79 1133 61 1151 z m 150 1151 b 111 1113 129 1151 111 1133 b 150 1072 111 1090 129 1072 b 190 1113 172 1072 190 1090 b 150 1151 190 1133 172 1151 z "},"̊":{"ha":222,"x_min":0,"x_max":0,"o":"m 76 1035 b 153 1111 119 1035 153 1069 b 76 1189 153 1154 119 1189 b 0 1111 33 1189 0 1154 b 76 1035 0 1069 33 1035 z m 76 1174 b 139 1111 111 1174 139 1146 b 76 1049 139 1076 111 1049 b 14 1111 42 1049 14 1076 b 76 1174 14 1146 42 1174 z "},"̌":{"ha":326,"x_min":0,"x_max":0,"o":"m 113 1071 l 129 1057 l 144 1071 l 257 1169 l 246 1169 l 129 1082 l 11 1169 l 0 1169 z "},"̧":{"ha":200,"x_min":0,"x_max":0,"o":"m 131 -74 b 65 -25 131 -47 101 -28 l 94 7 l 68 7 l 44 -35 l 50 -35 b 65 -36 56 -35 60 -35 b 110 -74 96 -40 110 -58 b 49 -115 110 -99 86 -115 b 4 -106 21 -115 8 -107 l 0 -114 b 10 -118 3 -115 6 -117 b 50 -125 21 -122 35 -125 b 131 -74 96 -125 131 -103 z "},"–":{"ha":685,"x_min":0,"x_max":0,"o":"m 615 118 l 0 118 l 0 104 l 615 104 z "},"—":{"ha":976,"x_min":0,"x_max":0,"o":"m 907 117 l 0 117 l 0 103 l 907 103 z "},"‘":{"ha":172,"x_min":0,"x_max":0,"o":"m 0 726 b 51 672 1 699 19 672 b 103 724 85 672 103 696 b 51 775 103 753 86 775 b 28 771 43 775 35 774 b 82 900 36 867 82 900 b 74 910 82 900 78 907 b 0 726 0 849 0 757 z "},"’":{"ha":172,"x_min":0,"x_max":0,"o":"m 103 857 b 51 910 101 883 83 910 b 0 858 18 910 0 888 b 51 807 0 831 17 807 b 75 813 60 807 68 810 b 21 682 67 717 21 682 b 29 672 21 682 25 676 b 103 857 103 735 103 825 z "},"‚":{"ha":172,"x_min":0,"x_max":0,"o":"m 103 -228 b 51 -175 101 -201 83 -175 b 0 -226 18 -175 0 -197 b 51 -278 0 -254 17 -278 b 75 -272 60 -278 68 -275 b 21 -403 67 -368 21 -403 b 29 -412 21 -403 25 -408 b 103 -228 103 -350 103 -260 z "},"“":{"ha":293,"x_min":0,"x_max":0,"o":"m 121 726 b 172 672 122 699 140 672 b 224 724 206 672 224 696 b 172 775 224 753 207 775 b 149 771 164 775 156 774 b 203 900 157 867 203 900 b 194 910 203 900 199 907 b 121 726 121 849 121 757 z m 0 726 b 51 672 1 699 19 672 b 103 724 85 672 103 696 b 51 775 103 753 86 775 b 28 771 43 775 35 774 b 82 900 36 867 82 900 b 74 910 82 900 78 907 b 0 726 0 849 0 757 z "},"”":{"ha":293,"x_min":0,"x_max":0,"o":"m 103 857 b 51 910 101 883 83 910 b 0 858 18 910 0 888 b 51 807 0 831 17 807 b 75 813 60 807 68 810 b 21 682 67 717 21 682 b 29 672 21 682 25 676 b 103 857 103 735 103 825 z m 224 857 b 172 910 222 883 204 910 b 121 858 139 910 121 888 b 172 807 121 831 138 807 b 196 813 181 807 189 810 b 142 682 188 717 142 682 b 150 672 142 682 146 676 b 224 857 224 735 224 825 z "},"„":{"ha":293,"x_min":0,"x_max":0,"o":"m 103 -228 b 51 -175 101 -201 83 -175 b 0 -226 18 -175 0 -197 b 51 -278 0 -254 17 -278 b 75 -272 60 -278 68 -275 b 21 -403 67 -368 21 -403 b 29 -412 21 -403 25 -408 b 103 -228 103 -350 103 -260 z m 224 -228 b 172 -175 222 -201 204 -175 b 121 -226 139 -175 121 -197 b 172 -278 121 -254 138 -278 b 196 -272 181 -278 189 -275 b 142 -403 188 -368 142 -403 b 150 -412 142 -403 146 -408 b 224 -228 224 -350 224 -260 z "},"†":{"ha":685,"x_min":0,"x_max":0,"o":"m 615 626 l 315 626 l 315 911 l 301 911 l 301 626 l 0 626 l 0 613 l 301 613 l 301 -278 l 315 -278 l 315 613 l 615 613 z "},"‡":{"ha":685,"x_min":0,"x_max":0,"o":"m 615 613 l 615 626 l 314 626 l 314 911 l 300 911 l 300 626 l 0 626 l 0 613 l 300 613 l 300 21 l 0 21 l 0 7 l 300 7 l 300 -278 l 314 -278 l 314 7 l 615 7 l 615 21 l 314 21 l 314 613 z "},"•":{"ha":694,"x_min":0,"x_max":0,"o":"m 101 574 b -1 472 35 574 -1 529 b 101 371 -1 415 32 371 b 203 472 168 371 203 415 b 101 574 203 529 168 574 z "},"…":{"ha":1389,"x_min":0,"x_max":0,"o":"m 51 -175 b 0 -226 18 -175 0 -197 b 51 -278 0 -254 15 -278 b 101 -226 85 -278 101 -254 b 51 -175 101 -197 85 -175 z m 514 -175 b 463 -226 481 -175 463 -197 b 514 -278 463 -254 478 -278 b 564 -226 547 -278 564 -254 b 514 -175 564 -197 547 -175 z m 976 -175 b 925 -226 943 -175 925 -197 b 976 -278 925 -254 940 -278 b 1026 -226 1010 -278 1026 -254 b 976 -175 1026 -197 1010 -175 z "},"‹":{"ha":590,"x_min":0,"x_max":0,"o":"m 521 318 l 515 332 l 18 119 l 0 111 l 18 104 l 515 -108 l 521 -94 l 36 111 z "},"›":{"ha":590,"x_min":0,"x_max":0,"o":"m 0 318 l 485 111 l 0 -94 l 6 -108 l 503 104 l 521 111 l 503 119 l 6 332 z "},"⁄":{"ha":532,"x_min":0,"x_max":0,"o":"m 463 911 l 447 911 l 0 -278 l 15 -278 z "},"∕":{"ha":532,"x_min":0,"x_max":0,"o":"m 463 911 l 447 911 l 0 -278 l 15 -278 z "},"₣":{"ha":1078,"x_min":0,"x_max":0,"o":"m 981 910 l 276 910 l 276 896 b 342 747 313 896 342 896 l 342 -4 l 0 -4 l 0 -19 l 342 -19 l 342 -117 b 279 -264 342 -264 314 -264 l 276 -264 l 276 -278 l 490 -278 l 490 -264 l 488 -264 b 425 -117 453 -264 425 -264 l 425 -19 l 846 -19 l 846 -4 l 425 -4 l 425 747 b 490 896 425 896 454 896 l 758 896 b 994 632 943 896 983 751 l 1008 633 z m 490 317 l 617 313 b 769 163 733 311 769 246 l 783 163 l 783 471 l 769 471 b 618 321 769 386 732 325 z "},"₤":{"ha":1038,"x_min":0,"x_max":0,"o":"m 954 82 b 707 -264 943 -37 904 -264 l 422 -264 b 361 -117 389 -264 361 -264 l 361 181 l 847 181 l 847 194 l 361 194 l 361 439 l 847 439 l 847 453 l 361 453 l 361 710 b 497 899 361 793 383 899 b 699 624 628 899 690 764 l 713 625 l 697 886 l 683 885 l 683 879 b 669 858 683 867 678 858 b 650 867 664 858 657 861 b 494 910 615 893 561 910 b 276 650 415 910 276 861 l 276 453 l 0 453 l 0 439 l 276 439 l 276 194 l 0 194 l 0 181 l 276 181 l 276 -117 b 214 -264 276 -264 249 -264 l 211 -264 l 211 -278 l 931 -278 l 968 81 z "},"₧":{"ha":1701,"x_min":0,"x_max":0,"o":"m 863 488 l 863 -176 b 875 -235 863 -201 867 -221 b 904 -265 883 -249 893 -258 b 933 -276 914 -272 924 -275 b 951 -279 943 -278 949 -279 b 1039 -250 986 -279 1015 -269 b 1093 -190 1063 -232 1081 -211 b 1110 -161 1100 -179 1106 -169 l 1113 -193 b 1219 -251 1133 -212 1169 -232 b 1369 -282 1268 -272 1318 -282 b 1497 -258 1415 -282 1457 -274 b 1594 -187 1538 -243 1569 -219 b 1632 -71 1619 -156 1632 -117 b 1597 35 1632 -28 1621 7 b 1508 104 1574 63 1543 86 b 1394 156 1472 122 1435 140 b 1292 201 1357 169 1324 185 b 1214 260 1260 218 1233 238 b 1183 343 1193 282 1183 310 b 1204 428 1183 378 1190 407 b 1254 474 1218 449 1235 464 b 1308 494 1274 483 1292 490 b 1342 499 1325 497 1336 499 b 1486 446 1396 499 1444 481 b 1585 268 1526 410 1560 350 b 1589 269 1586 269 1588 269 b 1592 269 1590 269 1590 269 b 1593 271 1592 269 1592 269 b 1597 271 1594 271 1596 271 l 1588 425 b 1343 513 1522 483 1440 513 b 1231 492 1303 513 1265 506 b 1144 426 1196 476 1167 456 b 1111 319 1122 397 1111 363 b 1144 213 1111 275 1122 239 b 1228 147 1165 186 1193 164 b 1336 100 1263 129 1299 114 b 1439 56 1372 86 1407 71 b 1518 -6 1471 39 1497 18 b 1549 -103 1539 -31 1549 -62 b 1522 -203 1549 -146 1540 -179 b 1460 -251 1504 -226 1483 -242 b 1396 -267 1436 -261 1414 -265 b 1369 -268 1383 -268 1375 -268 l 1364 -268 b 1206 -204 1296 -268 1243 -247 b 1114 -31 1168 -161 1138 -104 l 1107 -31 b 1106 -32 1107 -32 1107 -32 b 1101 -32 1104 -32 1103 -32 l 1108 -142 b 1107 -146 1108 -143 1108 -144 b 1103 -157 1106 -149 1104 -153 b 1079 -197 1097 -169 1089 -182 b 1042 -236 1069 -212 1057 -225 b 988 -254 1026 -249 1008 -254 b 961 -244 978 -254 969 -251 b 947 -210 951 -237 947 -226 l 947 488 l 1117 488 l 1117 501 l 947 501 l 947 786 l 932 786 l 932 782 b 931 757 931 778 931 769 b 919 686 929 738 925 714 b 893 603 914 658 906 631 b 840 531 881 574 863 550 b 769 501 821 514 797 504 b 788 613 782 535 788 572 b 692 828 788 700 756 772 b 458 910 626 882 549 910 l 0 910 l 0 896 b 33 890 13 896 24 894 b 57 853 43 886 50 874 b 65 747 63 832 65 796 l 65 -117 b 57 -221 65 -165 63 -200 b 35 -257 51 -242 44 -253 b 3 -264 25 -261 15 -264 l 0 -264 l 0 -278 l 214 -278 l 214 -264 l 211 -264 b 181 -257 200 -264 190 -261 b 158 -221 171 -253 164 -242 b 150 -117 153 -200 150 -165 l 150 747 b 158 853 150 796 153 832 b 182 890 164 874 172 886 b 214 896 192 894 201 896 l 389 896 b 563 856 460 896 517 882 b 664 751 608 829 642 794 b 696 615 685 708 696 663 b 639 426 696 539 676 475 b 499 308 601 376 554 338 b 329 244 443 279 386 258 b 283 235 314 240 299 238 b 265 232 276 233 271 233 b 432 257 317 233 372 242 b 601 322 492 271 547 293 b 735 438 656 351 700 389 b 764 488 747 453 757 469 z "},"€":{"ha":1183,"x_min":0,"x_max":0,"o":"m 1106 -35 b 765 -235 1028 -168 890 -235 b 351 181 558 -235 399 -72 l 846 181 l 846 194 l 349 194 b 336 340 340 240 336 289 b 342 439 336 374 339 407 l 846 439 l 846 453 l 343 453 b 718 903 374 699 503 903 l 738 903 b 1047 611 896 894 1018 788 l 1061 525 l 1075 526 l 1022 879 l 1008 876 b 1010 867 1008 872 1010 869 b 990 843 1010 850 1000 843 b 968 850 983 843 975 846 b 718 917 890 892 808 917 b 258 453 464 917 300 717 l 0 453 l 0 439 l 257 439 b 249 317 251 399 249 358 b 256 194 249 275 250 233 l 0 194 l 0 181 l 258 181 b 724 -285 297 -83 456 -285 b 1114 -42 876 -285 1028 -207 z "},"№":{"ha":1582,"x_min":0,"x_max":0,"o":"m 661 910 l 661 896 b 706 876 678 896 694 896 b 725 747 718 858 725 821 l 725 -192 l 125 910 l 0 910 l 0 896 b 46 876 18 896 35 896 b 65 747 57 858 65 821 l 65 -115 b 0 -264 65 -262 36 -264 l 0 -278 l 144 -278 l 144 -264 b 99 -244 126 -264 110 -264 b 79 -115 86 -226 79 -189 l 79 819 l 676 -278 l 739 -278 l 739 747 b 804 896 739 894 768 896 l 804 910 z m 1193 911 b 874 514 979 911 874 729 b 1193 117 874 299 979 117 b 1513 514 1407 117 1513 299 b 1193 911 1513 729 1407 911 z m 1193 132 b 960 514 1026 132 960 307 b 1193 897 960 722 1026 897 b 1426 514 1358 897 1426 722 b 1193 132 1426 307 1358 132 z m 1500 -49 l 885 -49 l 885 -62 l 1500 -62 z "},"™":{"ha":546,"x_min":0,"x_max":0,"o":"m 476 910 l 440 910 l 350 718 l 254 910 l 224 910 l 224 907 b 235 901 228 907 232 907 b 239 871 238 897 239 889 l 239 664 b 224 629 239 629 232 629 l 224 625 l 258 625 l 258 629 b 247 633 253 629 250 629 b 242 664 244 638 242 647 l 242 886 l 340 689 l 440 901 l 440 664 b 426 629 440 629 435 629 l 425 629 l 425 625 l 476 625 l 476 629 b 461 664 468 629 461 629 l 461 871 b 476 907 461 907 468 907 z m 7 910 l 0 843 l 3 843 b 60 907 6 872 15 907 l 82 907 b 97 871 90 907 97 907 l 97 664 b 82 629 97 629 90 629 l 82 625 l 133 625 l 133 629 l 132 629 b 118 664 124 629 118 629 l 118 871 b 133 907 118 907 125 907 l 154 907 b 211 843 199 907 208 872 l 215 843 l 208 910 z "},"−":{"ha":685,"x_min":0,"x_max":0,"o":"m 615 118 l 0 118 l 0 104 l 615 104 z "},"≈":{"ha":317,"x_min":0,"x_max":0,"o":"m 224 40 b 197 33 215 36 207 33 l 190 33 b 126 57 168 33 147 44 b 93 75 115 63 106 69 b 61 82 83 79 72 82 l 54 82 b 19 65 42 82 28 74 b 0 33 11 56 4 44 b 53 71 13 53 32 71 l 56 71 b 119 44 78 71 99 58 b 153 28 129 39 140 32 b 185 22 163 25 174 22 l 192 22 b 228 35 204 22 218 26 b 247 67 238 43 244 54 b 224 40 242 56 233 46 z m 224 157 b 197 150 215 153 207 150 l 190 150 b 126 174 168 150 147 161 b 93 192 115 179 106 186 b 61 199 83 196 72 199 l 54 199 b 19 182 42 199 28 190 b 0 150 11 172 4 161 b 53 188 13 169 32 188 l 56 188 b 119 161 78 188 99 175 b 153 144 129 156 140 149 b 185 139 163 142 174 139 l 192 139 b 228 151 204 139 218 143 b 247 183 238 160 244 171 b 224 157 242 172 233 163 z "},"≤":{"ha":593,"x_min":0,"x_max":0,"o":"m 524 -272 l 524 -258 l 1 -258 l 1 -272 z m 521 308 l 515 321 l 18 108 l 0 101 l 18 94 l 515 -118 l 521 -106 l 36 101 z "},"≥":{"ha":593,"x_min":0,"x_max":0,"o":"m 524 -272 l 524 -258 l 1 -258 l 1 -272 z m 0 308 l 485 101 l 0 -106 l 6 -118 l 521 101 l 503 108 l 6 321 z "},"Œ":{"ha":1643,"x_min":0,"x_max":0,"o":"m 469 -271 b 261 -190 388 -271 318 -244 b 133 22 204 -137 163 -67 b 89 317 104 111 89 210 b 133 610 89 424 104 521 b 261 824 163 699 204 769 b 469 903 318 876 388 903 b 679 824 553 903 622 876 b 808 610 736 769 779 699 b 851 317 838 521 851 424 b 808 22 851 210 838 111 b 679 -190 779 -67 736 -137 b 469 -271 622 -244 553 -271 z m 853 -51 l 853 -117 b 844 -221 853 -165 850 -200 b 822 -257 839 -242 832 -253 b 790 -264 813 -261 803 -264 l 789 -264 l 789 -278 l 1535 -278 l 1574 79 l 1560 81 b 1544 -22 1557 50 1551 15 b 1506 -135 1536 -61 1524 -99 b 1433 -226 1488 -172 1464 -203 b 1313 -264 1401 -251 1361 -264 l 1000 -264 b 968 -257 988 -264 978 -261 b 946 -221 958 -253 951 -242 b 938 -117 940 -200 938 -165 l 938 244 b 940 317 939 268 940 292 b 938 389 940 342 939 365 l 938 747 b 947 853 938 796 940 832 b 971 890 953 874 961 886 b 1003 896 981 894 990 896 l 1269 896 b 1413 856 1332 896 1379 882 b 1482 754 1444 828 1468 794 b 1507 632 1496 714 1504 672 l 1521 633 l 1493 910 l 789 910 l 789 896 b 822 890 801 896 813 894 b 844 853 832 886 839 874 b 853 747 850 832 853 796 l 853 683 b 725 835 819 743 776 794 b 469 917 654 889 569 917 b 217 835 371 917 286 889 b 56 617 146 781 93 707 b 0 317 18 526 0 426 b 56 17 0 207 18 107 b 217 -203 93 -75 146 -149 b 469 -285 286 -257 371 -285 b 725 -203 569 -285 654 -257 b 853 -51 776 -162 819 -111 z m 1129 321 l 1003 317 l 1129 313 b 1249 268 1186 311 1226 296 b 1281 163 1269 239 1281 204 l 1296 163 l 1296 471 l 1281 471 b 1247 367 1281 428 1269 393 b 1129 321 1225 339 1186 324 z "},"œ":{"ha":1217,"x_min":0,"x_max":0,"o":"m 319 -262 b 185 -210 264 -262 219 -244 b 110 -71 150 -175 125 -129 b 86 119 94 -12 86 51 b 110 311 86 189 94 253 b 185 451 125 369 150 417 b 319 503 219 486 264 503 b 454 451 374 503 419 486 b 529 311 489 417 514 369 b 553 119 544 253 553 189 b 529 -71 553 51 544 -12 b 454 -210 514 -129 489 -175 b 319 -262 419 -244 374 -262 z m 594 -99 b 696 -232 618 -154 651 -199 b 871 -287 743 -269 801 -287 b 960 -274 897 -287 928 -283 b 1053 -222 992 -264 1024 -247 b 1129 -117 1082 -197 1108 -162 l 1121 -111 b 897 -257 1071 -208 996 -257 b 753 -206 839 -257 790 -240 b 668 -69 715 -172 686 -126 b 640 118 650 -12 640 50 b 665 307 640 188 649 250 b 739 443 682 364 707 408 b 861 493 771 476 813 493 b 950 469 892 493 921 485 b 1022 389 979 454 1003 426 b 1054 232 1040 350 1051 297 l 667 226 l 1054 218 l 1147 215 b 1146 233 1146 222 1146 228 b 1081 407 1136 310 1114 367 b 969 486 1047 446 1010 472 b 863 507 929 500 893 507 b 694 456 796 507 740 490 b 597 333 653 424 621 383 b 497 463 574 386 540 429 b 319 517 450 499 390 517 b 142 463 249 517 189 499 b 35 318 93 426 58 378 b 0 119 11 258 0 192 b 35 -79 0 47 11 -19 b 142 -224 58 -139 93 -187 b 319 -278 189 -260 249 -278 b 497 -224 390 -278 450 -260 b 594 -99 539 -192 572 -150 z "},"Š":{"ha":794,"x_min":0,"x_max":0,"o":"m 725 24 b 108 671 725 408 108 349 b 339 903 108 897 326 903 b 679 529 521 903 636 793 l 693 531 l 657 835 l 643 832 l 643 826 b 632 808 643 814 639 808 b 614 818 626 808 621 811 b 342 917 549 879 450 917 b 28 650 146 917 28 792 b 654 -4 28 265 654 339 b 379 -271 654 -268 392 -271 b 14 108 210 -271 51 -167 l 0 107 l 38 -196 l 51 -194 l 51 -185 b 64 -165 51 -171 56 -165 b 86 -176 69 -165 78 -169 b 379 -285 163 -246 274 -285 b 725 24 583 -285 725 -132 z m 329 990 l 346 976 l 361 990 l 474 1089 l 463 1089 l 346 1001 l 228 1089 l 217 1089 z "},"š":{"ha":600,"x_min":0,"x_max":0,"o":"m 82 343 b 240 499 82 485 219 499 b 483 268 350 499 433 435 b 496 271 490 269 489 269 l 486 425 b 242 513 428 478 339 513 b 10 319 124 513 10 447 b 447 -103 10 58 447 140 b 272 -268 447 -258 310 -268 l 263 -268 b 13 -31 128 -268 60 -176 l 7 -31 b 0 -32 6 -31 4 -31 l 11 -193 b 268 -282 51 -229 165 -282 b 531 -71 403 -282 531 -211 b 82 343 531 175 82 133 z m 239 588 l 256 574 l 271 588 l 383 686 l 372 686 l 256 599 l 138 686 l 126 686 z "},"Ÿ":{"ha":938,"x_min":0,"x_max":0,"o":"m 474 265 l 764 810 b 868 896 796 874 832 896 l 868 910 l 724 910 l 724 896 b 763 857 744 896 763 883 b 749 808 763 844 758 828 l 467 281 l 201 789 b 182 857 188 818 182 840 b 214 896 182 883 196 896 l 214 910 l 0 910 l 0 896 b 108 786 32 896 68 865 l 390 244 l 390 -117 b 328 -264 390 -264 363 -264 l 325 -264 l 325 -278 l 539 -278 l 539 -264 l 536 -264 b 474 -117 501 -264 474 -264 z m 410 1026 b 371 988 389 1026 371 1008 b 410 947 371 965 389 947 b 450 988 432 947 450 965 b 410 1026 450 1008 432 1026 z m 521 1026 b 482 988 500 1026 482 1008 b 521 947 482 965 500 947 b 561 988 543 947 561 965 b 521 1026 561 1008 543 1026 z "},"ž":{"ha":663,"x_min":0,"x_max":0,"o":"m 593 501 l 42 501 l 28 328 l 42 326 b 278 488 49 418 69 488 l 485 488 l 0 -279 l 565 -279 l 579 -104 l 565 -104 b 328 -264 557 -194 536 -264 l 110 -264 z m 290 574 l 307 560 l 322 574 l 435 672 l 424 672 l 307 585 l 189 672 l 178 672 z "},"‰":{"ha":1657,"x_min":0,"x_max":0,"o":"m 1010 910 l 13 -278 l 31 -278 l 1028 910 z m 197 215 b 394 563 328 215 394 371 b 197 910 394 754 328 910 b 0 563 67 910 0 754 b 197 215 0 371 67 215 z m 197 903 b 346 563 301 903 346 750 b 197 224 346 375 301 224 b 50 563 94 224 50 375 b 197 903 50 750 94 903 z m 851 418 b 654 71 721 418 654 263 b 851 -278 654 -122 721 -278 b 1049 71 982 -278 1049 -122 b 851 418 1049 263 982 418 z m 851 -269 b 704 71 749 -269 704 -117 b 851 410 704 257 749 410 b 1000 71 956 410 1000 257 b 851 -269 1000 -117 956 -269 z m 1390 418 b 1193 71 1260 418 1193 263 b 1390 -278 1193 -122 1260 -278 b 1588 71 1521 -278 1588 -122 b 1390 418 1588 263 1521 418 z m 1390 -269 b 1243 71 1288 -269 1243 -117 b 1390 410 1243 257 1288 410 b 1539 71 1494 410 1539 257 b 1390 -269 1539 -117 1494 -269 z "},"":{"ha":861,"x_min":0,"x_max":0,"o":"m 629 957 b 779 736 750 957 779 736 l 792 738 l 786 894 b 631 965 786 894 732 965 b 494 900 606 965 539 960 b 342 965 481 915 429 965 b 165 739 304 965 165 953 l 165 503 l 0 503 l 0 488 l 165 488 l 165 -118 b 103 -264 165 -264 138 -264 l 100 -264 l 100 -278 l 314 -278 l 314 -264 l 311 -264 b 250 -118 278 -264 250 -264 l 250 488 l 453 488 l 453 -118 b 390 -264 453 -264 425 -264 l 388 -264 l 388 -278 l 601 -278 l 601 -264 l 599 -264 b 538 -118 565 -264 538 -264 l 538 488 l 749 488 l 749 503 l 538 503 l 538 833 b 629 957 538 901 563 957 z m 250 503 l 250 833 b 342 957 250 901 275 957 b 465 838 406 957 443 896 b 453 739 457 811 453 778 l 453 503 z "},"":{"ha":669,"x_min":0,"x_max":0,"o":"m 599 -264 b 536 -118 564 -264 536 -264 l 536 503 l 249 503 l 249 833 b 342 957 249 901 275 957 b 490 736 461 957 490 736 l 503 738 l 497 894 b 342 965 497 894 443 965 b 164 739 303 965 164 953 l 164 503 l 0 503 l 0 488 l 164 488 l 164 -118 b 101 -264 164 -264 136 -264 l 100 -264 l 100 -278 l 313 -278 l 313 -264 l 311 -264 b 249 -118 276 -264 249 -264 l 249 488 l 451 488 l 451 -118 b 389 -264 451 -264 424 -264 l 388 -264 l 388 -278 l 600 -278 l 600 -264 z "},"":{"ha":671,"x_min":0,"x_max":0,"o":"m 599 -264 b 536 -118 564 -264 536 -264 l 536 965 b 467 936 519 956 496 944 b 454 933 463 935 458 935 b 342 965 428 950 390 965 b 165 739 304 965 165 953 l 165 503 l 0 503 l 0 488 l 165 488 l 165 -118 b 103 -264 165 -264 138 -264 l 100 -264 l 100 -278 l 314 -278 l 314 -264 l 311 -264 b 249 -118 276 -264 249 -264 l 249 488 l 451 488 l 451 -118 b 390 -264 451 -264 425 -264 l 388 -264 l 388 -278 l 601 -278 l 601 -264 z m 249 503 l 249 833 b 342 957 249 901 275 957 b 451 868 394 957 429 915 l 451 503 z "},"":{"ha":775,"x_min":0,"x_max":0,"o":"m 706 488 l 706 503 l 536 503 l 536 707 l 521 707 b 344 503 521 707 517 503 l 249 503 l 249 833 b 342 957 249 901 275 957 b 490 736 461 957 490 736 l 503 738 l 497 894 b 342 965 497 894 443 965 b 164 739 303 965 164 953 l 164 503 l 0 503 l 0 488 l 164 488 l 164 -118 b 101 -264 164 -264 136 -264 l 100 -264 l 100 -278 l 313 -278 l 313 -264 l 311 -264 b 249 -118 276 -264 249 -264 l 249 488 l 451 488 l 451 -175 b 540 -278 451 -276 532 -278 b 706 -144 643 -278 699 -169 b 699 -140 703 -142 699 -140 b 576 -254 699 -140 658 -254 b 536 -208 558 -254 536 -243 l 536 488 z "},"":{"ha":717,"x_min":0,"x_max":0,"o":"m 647 488 l 647 503 l 478 503 l 478 786 l 463 786 b 288 503 463 786 460 503 l 190 503 l 190 786 l 175 786 b 0 503 175 786 172 503 l 0 488 l 106 488 l 106 -175 b 194 -278 106 -276 186 -278 b 360 -144 297 -278 353 -169 b 354 -140 357 -142 354 -140 b 232 -254 354 -140 313 -254 b 190 -208 214 -254 190 -243 l 190 488 l 393 488 l 393 -175 b 482 -278 393 -276 474 -278 b 647 -144 585 -278 640 -169 b 640 -140 644 -142 640 -140 b 519 -254 640 -140 600 -254 b 478 -208 501 -254 478 -243 l 478 488 z "}}}
